<?xml version="1.0" encoding="UTF-8"?>
<svg version="1.1" xmlns="http://www.w3.org/2000/svg" width="3840" height="3469">
<path d="M0 0 C36.69529937 -0.1154659 73.39061275 -0.22617587 110.0859375 -0.33325195 C111.1630561 -0.33639558 111.1630561 -0.33639558 112.26193468 -0.33960271 C189.21035599 -0.56405136 266.15878189 -0.75773231 343.10742188 -0.88920593 C344.81681138 -0.89213439 346.52620089 -0.89506288 348.2355904 -0.89799138 C384.1167558 -0.95936883 419.99792703 -1.01641974 455.87910716 -1.06847324 C473.90362591 -1.09462637 491.92814333 -1.1216108 509.95265966 -1.14938127 C512.67157637 -1.1535655 515.39049312 -1.15772598 518.10940987 -1.16188548 C559.97297867 -1.22613912 601.83641926 -1.30821254 643.6998291 -1.44195557 C644.59981187 -1.44483044 645.49979463 -1.44770532 646.4270496 -1.45066731 C660.93727864 -1.49712665 675.44750273 -1.54508262 689.95772623 -1.59323725 C731.75574743 -1.73192822 773.5536699 -1.85953755 815.35189819 -1.91393566 C816.21159388 -1.9150599 817.07128957 -1.91618413 817.95703664 -1.91734244 C836.83025813 -1.9418245 855.70348084 -1.96061596 874.57671331 -1.97402064 C882.17087337 -1.97951463 889.76503272 -1.98582767 897.35919189 -1.9924221 C898.1903352 -1.99312407 899.0214785 -1.99382604 899.87780796 -1.99454929 C926.64966151 -2.01756771 953.42078198 -2.10723519 980.19233973 -2.23192638 C1007.16455453 -2.35724664 1034.1360583 -2.41706818 1061.10857156 -2.38610375 C1064.83762787 -2.38183918 1068.56668455 -2.3783241 1072.29574203 -2.37526131 C1073.39222381 -2.37432007 1073.39222381 -2.37432007 1074.51085674 -2.37335982 C1086.07646019 -2.36537225 1097.64055715 -2.42798108 1109.20575027 -2.52020711 C1120.58446461 -2.60948992 1131.96070093 -2.62190047 1143.33979058 -2.55846809 C1149.42576999 -2.52672643 1155.50672709 -2.52821601 1161.59216952 -2.62254683 C1199.56023418 -3.17716606 1199.56023418 -3.17716606 1208.20454407 4.49246943 C1211.87798206 8.71888434 1214.39408315 13.16868344 1216.66192341 18.26615546 C1218.96448785 22.97055973 1222.26275731 26.91057335 1225.5 31 C1226.74396648 32.65296047 1227.98407575 34.30883723 1229.21875 35.96875 C1233.11771213 41.16736617 1237.0560441 46.33547748 1241 51.5 C1246.19974224 58.30894681 1251.36814186 65.13974338 1256.5 72 C1261.61515849 78.83612126 1266.76025406 85.64826798 1271.9375 92.4375 C1272.93112549 93.74050049 1272.93112549 93.74050049 1273.94482422 95.06982422 C1277.31788188 99.49056784 1280.69485713 103.90829281 1284.07421875 108.32421875 C1291.09055716 117.50157251 1298.02953237 126.7249908 1304.85205078 136.04736328 C1309.37124291 142.20009119 1314.03863004 148.22538911 1318.75048828 154.23120117 C1323.54392479 160.36179643 1328.15850055 166.61196616 1332.75 172.89453125 C1336.74126806 178.33797943 1340.83358142 183.68967632 1345 189 C1350.38843796 195.86785285 1355.59945326 202.84701976 1360.75 209.89453125 C1364.74126806 215.33797943 1368.83358142 220.68967632 1373 226 C1378.38843796 232.86785285 1383.59945326 239.84701976 1388.75 246.89453125 C1392.74126806 252.33797943 1396.83358142 257.68967632 1401 263 C1406.38843796 269.86785285 1411.59945326 276.84701976 1416.75 283.89453125 C1420.74126896 289.33798066 1424.83360847 294.68965367 1429 300 C1434.4815112 306.98715905 1439.78833481 314.08619584 1445.03564453 321.25048828 C1449.03531916 326.70663335 1453.10733927 332.09274067 1457.25 337.44140625 C1466.08292247 348.84725197 1474.7910109 360.351805 1483.42578125 371.90820312 C1487.53852655 377.40472734 1491.70545841 382.85899332 1495.875 388.3125 C1501.02824097 395.05450412 1506.11428479 401.83895685 1511.125 408.6875 C1516.21014978 415.63624569 1521.43574169 422.45693769 1526.75048828 429.23120117 C1531.54392479 435.36179643 1536.15850055 441.61196616 1540.75 447.89453125 C1544.74126806 453.33797943 1548.83358142 458.68967632 1553 464 C1558.38843796 470.86785285 1563.59945326 477.84701976 1568.75 484.89453125 C1572.74126806 490.33797943 1576.83358142 495.68967632 1581 501 C1586.38843796 507.86785285 1591.59945326 514.84701976 1596.75 521.89453125 C1600.74126806 527.33797943 1604.83358142 532.68967632 1609 538 C1614.38843796 544.86785285 1619.59945326 551.84701976 1624.75 558.89453125 C1628.74126896 564.33798066 1632.83360847 569.68965367 1637 575 C1642.4815112 581.98715905 1647.78833481 589.08619584 1653.03564453 596.25048828 C1657.45346136 602.27704088 1661.97284599 608.21076856 1666.54785156 614.11914062 C1675.45645669 625.65779125 1684.24158117 637.28171915 1692.85058594 649.04541016 C1697.37031252 655.19875739 1702.03812605 661.22474672 1706.75048828 667.23120117 C1711.54392479 673.36179643 1716.15850055 679.61196616 1720.75 685.89453125 C1724.74126806 691.33797943 1728.83358142 696.68967632 1733 702 C1738.38843796 708.86785285 1743.59945326 715.84701976 1748.75 722.89453125 C1752.74126806 728.33797943 1756.83358142 733.68967632 1761 739 C1766.38843796 745.86785285 1771.59945326 752.84701976 1776.75 759.89453125 C1780.74126806 765.33797943 1784.83358142 770.68967632 1789 776 C1794.38843796 782.86785285 1799.59945326 789.84701976 1804.75 796.89453125 C1808.74126896 802.33798066 1812.83360847 807.68965367 1817 813 C1822.4815112 819.98715905 1827.78833481 827.08619584 1833.03564453 834.25048828 C1837.03531916 839.70663335 1841.10733927 845.09274067 1845.25 850.44140625 C1854.08292247 861.84725197 1862.7910109 873.351805 1871.42578125 884.90820312 C1875.53852655 890.40472734 1879.70545841 895.85899332 1883.875 901.3125 C1889.02824097 908.05450412 1894.11428479 914.83895685 1899.125 921.6875 C1904.21014978 928.63624569 1909.43574169 935.45693769 1914.75048828 942.23120117 C1919.54392479 948.36179643 1924.15850055 954.61196616 1928.75 960.89453125 C1932.74126806 966.33797943 1936.83358142 971.68967632 1941 977 C1946.38843796 983.86785285 1951.59945326 990.84701976 1956.75 997.89453125 C1960.74126806 1003.33797943 1964.83358142 1008.68967632 1969 1014 C1974.38843796 1020.86785285 1979.59945326 1027.84701976 1984.75 1034.89453125 C1988.74126806 1040.33797943 1992.83358142 1045.68967632 1997 1051 C2001.77753874 1057.08922907 2006.4331587 1063.25120891 2011 1069.5 C2016.79991645 1077.43565231 2022.77644045 1085.21665717 2028.84375 1092.94921875 C2029.89689928 1094.29864793 2030.94897586 1095.64891496 2032 1097 C2032.57363281 1097.73428223 2033.14726563 1098.46856445 2033.73828125 1099.22509766 C2034.28871094 1099.94101074 2034.83914063 1100.65692383 2035.40625 1101.39453125 C2035.90447266 1102.0388208 2036.40269531 1102.68311035 2036.91601562 1103.34692383 C2038 1105 2038 1105 2038 1107 C2039.15039081 1105.84960919 2040.30044707 1104.69888266 2041.44921875 1103.546875 C2042.50916662 1102.48959702 2043.57454233 1101.43774005 2044.64453125 1100.390625 C2049.98244749 1095.13705507 2054.84222044 1089.54162534 2059.6875 1083.8359375 C2065.75496445 1076.70359986 2071.95423252 1069.73485598 2078.33203125 1062.87890625 C2082.5674635 1058.3086082 2086.63526191 1053.60835337 2090.66796875 1048.859375 C2096.7416288 1041.71889643 2102.94727772 1034.74233219 2109.33203125 1027.87890625 C2113.5674635 1023.3086082 2117.63526191 1018.60835337 2121.66796875 1013.859375 C2127.7416288 1006.71889643 2133.94727772 999.74233219 2140.33203125 992.87890625 C2144.5674635 988.3086082 2148.63526191 983.60835337 2152.66796875 978.859375 C2158.7416288 971.71889643 2164.94727772 964.74233219 2171.33203125 957.87890625 C2175.5674635 953.3086082 2179.63526191 948.60835337 2183.66796875 943.859375 C2189.7416288 936.71889643 2195.94727772 929.74233219 2202.33203125 922.87890625 C2206.5674635 918.3086082 2210.63526191 913.60835337 2214.66796875 908.859375 C2220.7416288 901.71889643 2226.94727772 894.74233219 2233.33203125 887.87890625 C2237.5674635 883.3086082 2241.63526191 878.60835337 2245.66796875 873.859375 C2251.21916343 867.33372469 2256.86145879 860.93741372 2262.71411133 854.68041992 C2265.7383702 851.42668335 2268.60000498 848.09759081 2271.375 844.625 C2276.2064614 838.60330632 2281.49211671 833.04562085 2286.78125 827.4296875 C2290.73316017 823.23191078 2294.52345773 818.91709495 2298.25439453 814.52246094 C2304.79404337 806.82207553 2311.45091217 799.27591084 2318.33203125 791.87890625 C2322.5674635 787.3086082 2326.63526191 782.60835337 2330.66796875 777.859375 C2336.7416288 770.71889643 2342.94727772 763.74233219 2349.33203125 756.87890625 C2353.5674635 752.3086082 2357.63526191 747.60835337 2361.66796875 742.859375 C2367.7416288 735.71889643 2373.94727772 728.74233219 2380.33203125 721.87890625 C2384.5674635 717.3086082 2388.63526191 712.60835337 2392.66796875 707.859375 C2398.7416288 700.71889643 2404.94727772 693.74233219 2411.33203125 686.87890625 C2415.5674635 682.3086082 2419.63526191 677.60835337 2423.66796875 672.859375 C2429.7416288 665.71889643 2435.94727772 658.74233219 2442.33203125 651.87890625 C2446.5674635 647.3086082 2450.63526191 642.60835337 2454.66796875 637.859375 C2460.7416288 630.71889643 2466.94727772 623.74233219 2473.33203125 616.87890625 C2477.5674635 612.3086082 2481.63526191 607.60835337 2485.66796875 602.859375 C2491.7416288 595.71889643 2497.94727772 588.74233219 2504.33203125 581.87890625 C2508.5674635 577.3086082 2512.63526191 572.60835337 2516.66796875 567.859375 C2522.7416288 560.71889643 2528.94727772 553.74233219 2535.33203125 546.87890625 C2539.5674635 542.3086082 2543.63526191 537.60835337 2547.66796875 532.859375 C2553.7416288 525.71889643 2559.94727772 518.74233219 2566.33203125 511.87890625 C2570.5674635 507.3086082 2574.63526191 502.60835337 2578.66796875 497.859375 C2584.7416288 490.71889643 2590.94727772 483.74233219 2597.33203125 476.87890625 C2601.5674635 472.3086082 2605.63526191 467.60835337 2609.66796875 462.859375 C2615.7416288 455.71889643 2621.94727772 448.74233219 2628.33203125 441.87890625 C2632.5674635 437.3086082 2636.63526191 432.60835337 2640.66796875 427.859375 C2646.7416288 420.71889643 2652.94727772 413.74233219 2659.33203125 406.87890625 C2663.5674635 402.3086082 2667.63526191 397.60835337 2671.66796875 392.859375 C2677.7416288 385.71889643 2683.94727772 378.74233219 2690.33203125 371.87890625 C2694.5674635 367.3086082 2698.63526191 362.60835337 2702.66796875 357.859375 C2708.7416288 350.71889643 2714.94727772 343.74233219 2721.33203125 336.87890625 C2725.5674635 332.3086082 2729.63526191 327.60835337 2733.66796875 322.859375 C2739.7416288 315.71889643 2745.94727772 308.74233219 2752.33203125 301.87890625 C2756.5674635 297.3086082 2760.63526191 292.60835337 2764.66796875 287.859375 C2770.7416288 280.71889643 2776.94727772 273.74233219 2783.33203125 266.87890625 C2787.5674635 262.3086082 2791.63526191 257.60835337 2795.66796875 252.859375 C2801.7416288 245.71889643 2807.94727772 238.74233219 2814.33203125 231.87890625 C2818.5674635 227.3086082 2822.63526191 222.60835337 2826.66796875 217.859375 C2832.7416288 210.71889643 2838.94727772 203.74233219 2845.33203125 196.87890625 C2849.5674635 192.3086082 2853.63526191 187.60835337 2857.66796875 182.859375 C2863.7416288 175.71889643 2869.94727772 168.74233219 2876.33203125 161.87890625 C2880.5674635 157.3086082 2884.63526191 152.60835337 2888.66796875 147.859375 C2894.7416288 140.71889643 2900.94727772 133.74233219 2907.33203125 126.87890625 C2911.5674635 122.3086082 2915.63526191 117.60835337 2919.66796875 112.859375 C2925.7416288 105.71889643 2931.94727772 98.74233219 2938.33203125 91.87890625 C2942.5674635 87.3086082 2946.63526191 82.60835337 2950.66796875 77.859375 C2956.7416288 70.71889643 2962.94727772 63.74233219 2969.33203125 56.87890625 C2973.5674635 52.3086082 2977.63526191 47.60835337 2981.66796875 42.859375 C2987.73803162 35.72312545 2993.94017761 28.75074689 3000.3203125 21.890625 C3002.46898946 19.5728102 3004.59688452 17.24500649 3006.6875 14.875 C3007.20226318 14.31271377 3007.71702636 13.75042755 3008.24738842 13.17110234 C3010.10569252 11.00725835 3010.10569252 11.00725835 3011.46539873 8.26183671 C3014.0265621 4.03874205 3016.37395203 0.75510877 3021.20829447 -0.63498555 C3028.26076872 -1.70126303 3035.40839013 -1.425953 3042.51893616 -1.32279968 C3044.96447439 -1.32759716 3047.41000712 -1.33722977 3049.8555097 -1.35128051 C3055.17157836 -1.37074977 3060.48592083 -1.35609822 3065.80171776 -1.31126022 C3073.70569343 -1.24477689 3081.60881648 -1.24157482 3089.51302079 -1.2512221 C3102.80972654 -1.26566449 3116.10583034 -1.22896087 3129.40236092 -1.16303062 C3142.56609133 -1.09792628 3155.72957099 -1.05560195 3168.89346123 -1.04364967 C3170.12152966 -1.04251547 3170.12152966 -1.04251547 3171.37440756 -1.04135835 C3175.53229325 -1.03763665 3179.69017916 -1.03432144 3183.84806531 -1.03116272 C3213.29267965 -1.00806276 3242.73696656 -0.93396496 3272.18139648 -0.82983398 C3300.78489441 -0.7287938 3329.38830271 -0.6508798 3357.99194336 -0.60424805 C3359.31464832 -0.60207787 3359.31464832 -0.60207787 3360.6640746 -0.59986384 C3369.51956671 -0.58536003 3378.37505952 -0.57132609 3387.23055293 -0.55763639 C3405.26995328 -0.52973861 3423.30934778 -0.49870483 3441.34873962 -0.46577454 C3442.17814797 -0.46426435 3443.00755631 -0.46275416 3443.86209824 -0.4611982 C3499.24153612 -0.36000368 3554.62078822 -0.18547905 3610 0 C3609.05742609 1.27167386 3608.11276224 2.5417988 3607.16723633 3.8112793 C3606.37848869 4.87248238 3606.37848869 4.87248238 3605.57380676 5.9551239 C3603.42764096 8.74367664 3601.10406499 11.25273116 3598.6875 13.8125 C3595.16513928 17.58334335 3591.79264264 21.40863118 3588.5625 25.4375 C3584.19859541 30.85908343 3579.5157847 35.92842117 3574.7734375 41.015625 C3570.46894486 45.63353761 3566.35687595 50.40761607 3562.26171875 55.2109375 C3561.23716908 56.41162041 3560.21242354 57.61213621 3559.1875 58.8125 C3558.67018311 59.41868164 3558.15286621 60.02486328 3557.61987305 60.64941406 C3554.41497771 64.3907082 3551.14790722 68.06115383 3547.8125 71.6875 C3544.64169258 75.14015696 3541.61964969 78.65530966 3538.6875 82.3125 C3534.61251555 87.36836567 3530.24768006 92.08187223 3525.79980469 96.80566406 C3521.76084255 101.11845414 3518.01067423 105.59820511 3514.31640625 110.2109375 C3510.64013503 114.63734163 3506.69573628 118.80801112 3502.7734375 123.015625 C3498.46894486 127.63353761 3494.35687595 132.40761607 3490.26171875 137.2109375 C3484.67681067 143.75655431 3479.03446039 150.22039507 3473.22265625 156.56640625 C3469.13950243 161.037065 3465.18157621 165.61141889 3461.25390625 170.21875 C3460.2319362 171.41680775 3459.20979569 172.6147201 3458.1875 173.8125 C3457.67034424 174.41852051 3457.15318848 175.02454102 3456.62036133 175.64892578 C3453.4152347 179.39032262 3450.14806271 183.06098478 3446.8125 186.6875 C3443.64169258 190.14015696 3440.61964969 193.65530966 3437.6875 197.3125 C3433.61251555 202.36836567 3429.24768006 207.08187223 3424.79980469 211.80566406 C3420.76084255 216.11845414 3417.01067423 220.59820511 3413.31640625 225.2109375 C3409.64013503 229.63734163 3405.69573628 233.80801112 3401.7734375 238.015625 C3397.46894486 242.63353761 3393.35687595 247.40761607 3389.26171875 252.2109375 C3383.67681067 258.75655431 3378.03446039 265.22039507 3372.22265625 271.56640625 C3368.13950243 276.037065 3364.18157621 280.61141889 3360.25390625 285.21875 C3359.2319362 286.41680775 3358.20979569 287.6147201 3357.1875 288.8125 C3356.67034424 289.41852051 3356.15318848 290.02454102 3355.62036133 290.64892578 C3352.4152347 294.39032262 3349.14806271 298.06098478 3345.8125 301.6875 C3342.64169258 305.14015696 3339.61964969 308.65530966 3336.6875 312.3125 C3332.61251555 317.36836567 3328.24768006 322.08187223 3323.79980469 326.80566406 C3319.76084255 331.11845414 3316.01067423 335.59820511 3312.31640625 340.2109375 C3308.64013503 344.63734163 3304.69573628 348.80801112 3300.7734375 353.015625 C3296.46894486 357.63353761 3292.35687595 362.40761607 3288.26171875 367.2109375 C3282.67681067 373.75655431 3277.03446039 380.22039507 3271.22265625 386.56640625 C3267.13950243 391.037065 3263.18157621 395.61141889 3259.25390625 400.21875 C3258.2319362 401.41680775 3257.20979569 402.6147201 3256.1875 403.8125 C3255.67034424 404.41852051 3255.15318848 405.02454102 3254.62036133 405.64892578 C3251.4152347 409.39032262 3248.14806271 413.06098478 3244.8125 416.6875 C3241.64169258 420.14015696 3238.61964969 423.65530966 3235.6875 427.3125 C3231.61251555 432.36836567 3227.24768006 437.08187223 3222.79980469 441.80566406 C3218.76084255 446.11845414 3215.01067423 450.59820511 3211.31640625 455.2109375 C3207.64013503 459.63734163 3203.69573628 463.80801112 3199.7734375 468.015625 C3195.46894486 472.63353761 3191.35687595 477.40761607 3187.26171875 482.2109375 C3181.67681067 488.75655431 3176.03446039 495.22039507 3170.22265625 501.56640625 C3166.13950243 506.037065 3162.18157621 510.61141889 3158.25390625 515.21875 C3157.2319362 516.41680775 3156.20979569 517.6147201 3155.1875 518.8125 C3154.41176636 519.72153076 3154.41176636 519.72153076 3153.62036133 520.64892578 C3150.4152347 524.39032262 3147.14806271 528.06098478 3143.8125 531.6875 C3140.64169258 535.14015696 3137.61964969 538.65530966 3134.6875 542.3125 C3130.61251555 547.36836567 3126.24768006 552.08187223 3121.79980469 556.80566406 C3117.76084255 561.11845414 3114.01067423 565.59820511 3110.31640625 570.2109375 C3106.64013503 574.63734163 3102.69573628 578.80801112 3098.7734375 583.015625 C3094.46894486 587.63353761 3090.35687595 592.40761607 3086.26171875 597.2109375 C3080.67681067 603.75655431 3075.03446039 610.22039507 3069.22265625 616.56640625 C3065.13950243 621.037065 3061.18157621 625.61141889 3057.25390625 630.21875 C3056.2319362 631.41680775 3055.20979569 632.6147201 3054.1875 633.8125 C3053.41176636 634.72153076 3053.41176636 634.72153076 3052.62036133 635.64892578 C3049.4152347 639.39032262 3046.14806271 643.06098478 3042.8125 646.6875 C3039.64169258 650.14015696 3036.61964969 653.65530966 3033.6875 657.3125 C3029.61251555 662.36836567 3025.24768006 667.08187223 3020.79980469 671.80566406 C3016.76084255 676.11845414 3013.01067423 680.59820511 3009.31640625 685.2109375 C3005.64013503 689.63734163 3001.69573628 693.80801112 2997.7734375 698.015625 C2993.46894486 702.63353761 2989.35687595 707.40761607 2985.26171875 712.2109375 C2979.67681067 718.75655431 2974.03446039 725.22039507 2968.22265625 731.56640625 C2964.13950243 736.037065 2960.18157621 740.61141889 2956.25390625 745.21875 C2955.2319362 746.41680775 2954.20979569 747.6147201 2953.1875 748.8125 C2952.41176636 749.72153076 2952.41176636 749.72153076 2951.62036133 750.64892578 C2948.4152347 754.39032262 2945.14806271 758.06098478 2941.8125 761.6875 C2938.64169258 765.14015696 2935.61964969 768.65530966 2932.6875 772.3125 C2928.61251555 777.36836567 2924.24768006 782.08187223 2919.79980469 786.80566406 C2915.76084255 791.11845414 2912.01067423 795.59820511 2908.31640625 800.2109375 C2904.64013503 804.63734163 2900.69573628 808.80801112 2896.7734375 813.015625 C2892.46894486 817.63353761 2888.35687595 822.40761607 2884.26171875 827.2109375 C2878.67681067 833.75655431 2873.03446039 840.22039507 2867.22265625 846.56640625 C2863.13950243 851.037065 2859.18157621 855.61141889 2855.25390625 860.21875 C2854.2319362 861.41680775 2853.20979569 862.6147201 2852.1875 863.8125 C2851.41176636 864.72153076 2851.41176636 864.72153076 2850.62036133 865.64892578 C2847.4152347 869.39032262 2844.14806271 873.06098478 2840.8125 876.6875 C2837.64169258 880.14015696 2834.61964969 883.65530966 2831.6875 887.3125 C2827.61251555 892.36836567 2823.24768006 897.08187223 2818.79980469 901.80566406 C2814.76084255 906.11845414 2811.01067423 910.59820511 2807.31640625 915.2109375 C2803.64013503 919.63734163 2799.69573628 923.80801112 2795.7734375 928.015625 C2791.46894486 932.63353761 2787.35687595 937.40761607 2783.26171875 942.2109375 C2777.67681067 948.75655431 2772.03446039 955.22039507 2766.22265625 961.56640625 C2762.13950243 966.037065 2758.18157621 970.61141889 2754.25390625 975.21875 C2753.2319362 976.41680775 2752.20979569 977.6147201 2751.1875 978.8125 C2750.41176636 979.72153076 2750.41176636 979.72153076 2749.62036133 980.64892578 C2746.4152347 984.39032262 2743.14806271 988.06098478 2739.8125 991.6875 C2736.64169258 995.14015696 2733.61964969 998.65530966 2730.6875 1002.3125 C2726.61251555 1007.36836567 2722.24768006 1012.08187223 2717.79980469 1016.80566406 C2713.76084255 1021.11845414 2710.01067423 1025.59820511 2706.31640625 1030.2109375 C2702.64013503 1034.63734163 2698.69573628 1038.80801112 2694.7734375 1043.015625 C2690.46894486 1047.63353761 2686.35687595 1052.40761607 2682.26171875 1057.2109375 C2676.67681067 1063.75655431 2671.03446039 1070.22039507 2665.22265625 1076.56640625 C2661.13950243 1081.037065 2657.18157621 1085.61141889 2653.25390625 1090.21875 C2652.2319362 1091.41680775 2651.20979569 1092.6147201 2650.1875 1093.8125 C2649.67034424 1094.41852051 2649.15318848 1095.02454102 2648.62036133 1095.64892578 C2645.4152347 1099.39032262 2642.14806271 1103.06098478 2638.8125 1106.6875 C2635.64169258 1110.14015696 2632.61964969 1113.65530966 2629.6875 1117.3125 C2625.61251555 1122.36836567 2621.24768006 1127.08187223 2616.79980469 1131.80566406 C2612.76084255 1136.11845414 2609.01067423 1140.59820511 2605.31640625 1145.2109375 C2601.64013503 1149.63734163 2597.69573628 1153.80801112 2593.7734375 1158.015625 C2589.46894486 1162.63353761 2585.35687595 1167.40761607 2581.26171875 1172.2109375 C2575.67681067 1178.75655431 2570.03446039 1185.22039507 2564.22265625 1191.56640625 C2560.13950243 1196.037065 2556.18157621 1200.61141889 2552.25390625 1205.21875 C2551.2319362 1206.41680775 2550.20979569 1207.6147201 2549.1875 1208.8125 C2548.67034424 1209.41852051 2548.15318848 1210.02454102 2547.62036133 1210.64892578 C2544.4152347 1214.39032262 2541.14806271 1218.06098478 2537.8125 1221.6875 C2534.64169258 1225.14015696 2531.61964969 1228.65530966 2528.6875 1232.3125 C2524.61251555 1237.36836567 2520.24768006 1242.08187223 2515.79980469 1246.80566406 C2511.76084255 1251.11845414 2508.01067423 1255.59820511 2504.31640625 1260.2109375 C2500.64013503 1264.63734163 2496.69573628 1268.80801112 2492.7734375 1273.015625 C2488.46894486 1277.63353761 2484.35687595 1282.40761607 2480.26171875 1287.2109375 C2474.67681067 1293.75655431 2469.03446039 1300.22039507 2463.22265625 1306.56640625 C2459.13950243 1311.037065 2455.18157621 1315.61141889 2451.25390625 1320.21875 C2450.2319362 1321.41680775 2449.20979569 1322.6147201 2448.1875 1323.8125 C2447.67034424 1324.41852051 2447.15318848 1325.02454102 2446.62036133 1325.64892578 C2443.4152347 1329.39032262 2440.14806271 1333.06098478 2436.8125 1336.6875 C2433.64169258 1340.14015696 2430.61964969 1343.65530966 2427.6875 1347.3125 C2423.61251555 1352.36836567 2419.24768006 1357.08187223 2414.79980469 1361.80566406 C2410.76084255 1366.11845414 2407.01067423 1370.59820511 2403.31640625 1375.2109375 C2399.64013503 1379.63734163 2395.69573628 1383.80801112 2391.7734375 1388.015625 C2387.46894486 1392.63353761 2383.35687595 1397.40761607 2379.26171875 1402.2109375 C2373.67681067 1408.75655431 2368.03446039 1415.22039507 2362.22265625 1421.56640625 C2358.13950243 1426.037065 2354.18157621 1430.61141889 2350.25390625 1435.21875 C2349.2319362 1436.41680775 2348.20979569 1437.6147201 2347.1875 1438.8125 C2346.67034424 1439.41852051 2346.15318848 1440.02454102 2345.62036133 1440.64892578 C2342.4152347 1444.39032262 2339.14806271 1448.06098478 2335.8125 1451.6875 C2331.65711783 1456.21150479 2327.74957939 1460.89344715 2323.91015625 1465.6875 C2322.34960398 1467.57675756 2320.77142472 1469.31187111 2319 1471 C2320.60214829 1476.2746051 2323.98638314 1480.08192066 2327.375 1484.3125 C2328.65739657 1485.93659532 2329.93862727 1487.56161183 2331.21875 1489.1875 C2331.85941406 1489.99960938 2332.50007813 1490.81171875 2333.16015625 1491.6484375 C2335.7819928 1494.99948973 2338.33455899 1498.39954891 2340.875 1501.8125 C2345.49758543 1508.01337708 2350.1764436 1514.16900879 2354.875 1520.3125 C2360.02835321 1527.05441652 2365.11428662 1533.83895934 2370.125 1540.6875 C2375.21014978 1547.63624569 2380.43574169 1554.45693769 2385.75048828 1561.23120117 C2390.54392479 1567.36179643 2395.15850055 1573.61196616 2399.75 1579.89453125 C2403.74126806 1585.33797943 2407.83358142 1590.68967632 2412 1596 C2417.38843796 1602.86785285 2422.59945326 1609.84701976 2427.75 1616.89453125 C2431.74126806 1622.33797943 2435.83358142 1627.68967632 2440 1633 C2445.38843796 1639.86785285 2450.59945326 1646.84701976 2455.75 1653.89453125 C2459.74126806 1659.33797943 2463.83358142 1664.68967632 2468 1670 C2473.38843796 1676.86785285 2478.59945326 1683.84701976 2483.75 1690.89453125 C2487.74126806 1696.33797943 2491.83358142 1701.68967632 2496 1707 C2501.38843796 1713.86785285 2506.59945326 1720.84701976 2511.75 1727.89453125 C2515.74126896 1733.33798066 2519.83360847 1738.68965367 2524 1744 C2529.4815112 1750.98715905 2534.78833481 1758.08619584 2540.03564453 1765.25048828 C2544.03531916 1770.70663335 2548.10733927 1776.09274067 2552.25 1781.44140625 C2561.08292247 1792.84725197 2569.7910109 1804.351805 2578.42578125 1815.90820312 C2582.53852655 1821.40472734 2586.70545841 1826.85899332 2590.875 1832.3125 C2596.02824097 1839.05450412 2601.11428479 1845.83895685 2606.125 1852.6875 C2611.21014978 1859.63624569 2616.43574169 1866.45693769 2621.75048828 1873.23120117 C2626.54392479 1879.36179643 2631.15850055 1885.61196616 2635.75 1891.89453125 C2639.74126806 1897.33797943 2643.83358142 1902.68967632 2648 1908 C2653.38843796 1914.86785285 2658.59945326 1921.84701976 2663.75 1928.89453125 C2667.74126806 1934.33797943 2671.83358142 1939.68967632 2676 1945 C2681.38843796 1951.86785285 2686.59945326 1958.84701976 2691.75 1965.89453125 C2695.74126806 1971.33797943 2699.83358142 1976.68967632 2704 1982 C2709.38843796 1988.86785285 2714.59945326 1995.84701976 2719.75 2002.89453125 C2723.74126806 2008.33797943 2727.83358142 2013.68967632 2732 2019 C2737.38843796 2025.86785285 2742.59945326 2032.84701976 2747.75 2039.89453125 C2751.74126896 2045.33798066 2755.83360847 2050.68965367 2760 2056 C2765.4815112 2062.98715905 2770.78833481 2070.08619584 2776.03564453 2077.25048828 C2780.03531916 2082.70663335 2784.10733927 2088.09274067 2788.25 2093.44140625 C2797.08292247 2104.84725197 2805.7910109 2116.351805 2814.42578125 2127.90820312 C2818.53852655 2133.40472734 2822.70545841 2138.85899332 2826.875 2144.3125 C2832.02824097 2151.05450412 2837.11428479 2157.83895685 2842.125 2164.6875 C2847.21014978 2171.63624569 2852.43574169 2178.45693769 2857.75048828 2185.23120117 C2862.54392479 2191.36179643 2867.15850055 2197.61196616 2871.75 2203.89453125 C2875.74126806 2209.33797943 2879.83358142 2214.68967632 2884 2220 C2889.38843796 2226.86785285 2894.59945326 2233.84701976 2899.75 2240.89453125 C2903.74126806 2246.33797943 2907.83358142 2251.68967632 2912 2257 C2917.38843796 2263.86785285 2922.59945326 2270.84701976 2927.75 2277.89453125 C2931.74126806 2283.33797943 2935.83358142 2288.68967632 2940 2294 C2945.38843796 2300.86785285 2950.59945326 2307.84701976 2955.75 2314.89453125 C2959.74126806 2320.33797943 2963.83358142 2325.68967632 2968 2331 C2973.38843796 2337.86785285 2978.59945326 2344.84701976 2983.75 2351.89453125 C2987.74126896 2357.33798066 2991.83360847 2362.68965367 2996 2368 C3001.4815112 2374.98715905 3006.78833481 2382.08619584 3012.03564453 2389.25048828 C3016.03531916 2394.70663335 3020.10733927 2400.09274067 3024.25 2405.44140625 C3033.08292247 2416.84725197 3041.7910109 2428.351805 3050.42578125 2439.90820312 C3054.53852655 2445.40472734 3058.70545841 2450.85899332 3062.875 2456.3125 C3068.02824097 2463.05450412 3073.11428479 2469.83895685 3078.125 2476.6875 C3083.21014978 2483.63624569 3088.43574169 2490.45693769 3093.75048828 2497.23120117 C3098.54392479 2503.36179643 3103.15850055 2509.61196616 3107.75 2515.89453125 C3111.74126806 2521.33797943 3115.83358142 2526.68967632 3120 2532 C3125.38843796 2538.86785285 3130.59945326 2545.84701976 3135.75 2552.89453125 C3139.74126806 2558.33797943 3143.83358142 2563.68967632 3148 2569 C3153.38843796 2575.86785285 3158.59945326 2582.84701976 3163.75 2589.89453125 C3167.74126806 2595.33797943 3171.83358142 2600.68967632 3176 2606 C3181.38843796 2612.86785285 3186.59945326 2619.84701976 3191.75 2626.89453125 C3195.74126806 2632.33797943 3199.83358142 2637.68967632 3204 2643 C3209.38843796 2649.86785285 3214.59945326 2656.84701976 3219.75 2663.89453125 C3223.74126896 2669.33798066 3227.83360847 2674.68965367 3232 2680 C3237.4815112 2686.98715905 3242.78833481 2694.08619584 3248.03564453 2701.25048828 C3252.03531916 2706.70663335 3256.10733927 2712.09274067 3260.25 2717.44140625 C3269.08292247 2728.84725197 3277.7910109 2740.351805 3286.42578125 2751.90820312 C3290.53852655 2757.40472734 3294.70545841 2762.85899332 3298.875 2768.3125 C3304.02824097 2775.05450412 3309.11428479 2781.83895685 3314.125 2788.6875 C3319.21014978 2795.63624569 3324.43574169 2802.45693769 3329.75048828 2809.23120117 C3334.54392479 2815.36179643 3339.15850055 2821.61196616 3343.75 2827.89453125 C3347.74126806 2833.33797943 3351.83358142 2838.68967632 3356 2844 C3361.38843796 2850.86785285 3366.59945326 2857.84701976 3371.75 2864.89453125 C3375.74126806 2870.33797943 3379.83358142 2875.68967632 3384 2881 C3389.38843796 2887.86785285 3394.59945326 2894.84701976 3399.75 2901.89453125 C3403.74126806 2907.33797943 3407.83358142 2912.68967632 3412 2918 C3417.38843796 2924.86785285 3422.59945326 2931.84701976 3427.75 2938.89453125 C3431.74126806 2944.33797943 3435.83358142 2949.68967632 3440 2955 C3445.38843796 2961.86785285 3450.59945326 2968.84701976 3455.75 2975.89453125 C3459.74126896 2981.33798066 3463.83360847 2986.68965367 3468 2992 C3473.4815112 2998.98715905 3478.78833481 3006.08619584 3484.03564453 3013.25048828 C3488.03531916 3018.70663335 3492.10733927 3024.09274067 3496.25 3029.44140625 C3505.08292247 3040.84725197 3513.7910109 3052.351805 3522.42578125 3063.90820312 C3526.53852655 3069.40472734 3530.70545841 3074.85899332 3534.875 3080.3125 C3540.02824097 3087.05450412 3545.11428479 3093.83895685 3550.125 3100.6875 C3555.21014978 3107.63624569 3560.43574169 3114.45693769 3565.75048828 3121.23120117 C3570.54392479 3127.36179643 3575.15850055 3133.61196616 3579.75 3139.89453125 C3583.74126806 3145.33797943 3587.83358142 3150.68967632 3592 3156 C3597.38843796 3162.86785285 3602.59945326 3169.84701976 3607.75 3176.89453125 C3611.74126806 3182.33797943 3615.83358142 3187.68967632 3620 3193 C3625.38843796 3199.86785285 3630.59945326 3206.84701976 3635.75 3213.89453125 C3639.74126806 3219.33797943 3643.83358142 3224.68967632 3648 3230 C3653.38843796 3236.86785285 3658.59945326 3243.84701976 3663.75 3250.89453125 C3667.74126806 3256.33797943 3671.83358142 3261.68967632 3676 3267 C3681.38843796 3273.86785285 3686.59945326 3280.84701976 3691.75 3287.89453125 C3695.74126896 3293.33798066 3699.83360847 3298.68965367 3704 3304 C3709.4815112 3310.98715905 3714.78833481 3318.08619584 3720.03564453 3325.25048828 C3724.03531916 3330.70663335 3728.10733927 3336.09274067 3732.25 3341.44140625 C3741.08292247 3352.84725197 3749.7910109 3364.351805 3758.42578125 3375.90820312 C3762.53852655 3381.40472734 3766.70545841 3386.85899332 3770.875 3392.3125 C3776.02824097 3399.05450412 3781.11428479 3405.83895685 3786.125 3412.6875 C3791.20520987 3419.62949541 3796.42526589 3426.44393675 3801.73510742 3433.21142578 C3806.65661258 3439.50558624 3811.41244127 3445.91314534 3816.11914062 3452.36914062 C3819.55322121 3457.0729653 3823.07593488 3461.68786293 3826.69946289 3466.24780273 C3828 3468 3828 3468 3828 3469 C3791.7425198 3469.08247386 3755.48503237 3469.16155268 3719.22753906 3469.23803711 C3718.51804178 3469.23953407 3717.8085445 3469.24103104 3717.07754731 3469.24257337 C3641.05619219 3469.40287816 3565.0348347 3469.54122589 3489.0133667 3469.63514709 C3487.32477904 3469.63723885 3485.63619139 3469.63933063 3483.94760374 3469.64142242 C3448.50391946 3469.68526243 3413.06023217 3469.7260132 3377.61654029 3469.76319517 C3359.81207314 3469.78187613 3342.00760666 3469.80115073 3324.20314076 3469.82098662 C3321.51739966 3469.82397535 3318.83165853 3469.82694713 3316.14591741 3469.8299182 C3274.78792303 3469.87581945 3233.42999485 3469.93445434 3192.07208252 3470.02996826 C3191.18281056 3470.03202174 3190.2935386 3470.03407523 3189.37731901 3470.03619093 C3175.03956748 3470.06937662 3160.7018185 3470.10363071 3146.36406983 3470.13802661 C3105.06829213 3470.23707783 3063.77256535 3470.32823224 3022.47668076 3470.3670969 C3021.20292452 3470.36830144 3021.20292452 3470.36830144 3019.90343584 3470.36953031 C3001.26231618 3470.38701655 2982.62119589 3470.40043946 2963.98007056 3470.41001474 C2956.47956977 3470.41393908 2948.97906936 3470.41844838 2941.47856903 3470.42315865 C2940.24722153 3470.42391076 2940.24722153 3470.42391076 2938.99099833 3470.42467806 C2912.53907862 3470.44112601 2886.08753712 3470.50519583 2859.63577006 3470.59423313 C2832.99091137 3470.68370246 2806.34641969 3470.72648948 2779.70140697 3470.70435982 C2776.01954011 3470.7013136 2772.33767306 3470.69880287 2768.65580559 3470.69661522 C2767.93405344 3470.69616701 2767.21230128 3470.6957188 2766.46867785 3470.69525701 C2755.0388473 3470.68954661 2743.60979317 3470.73431793 2732.1801742 3470.80014794 C2720.94157085 3470.86384049 2709.70396217 3470.87283924 2698.46517543 3470.8274772 C2692.45215185 3470.8047716 2686.44172339 3470.80602313 2680.42897537 3470.87324774 C2674.95813593 3470.93395008 2669.49191525 3470.92557773 2664.02114702 3470.86209964 C2662.05471095 3470.85138557 2660.08793572 3470.86583593 2658.12193396 3470.90852867 C2643.90662816 3471.19764966 2643.90662816 3471.19764966 2639.06223991 3467.5348942 C2635.52297014 3464.02070263 2632.7675981 3460.08496726 2630.16021425 3455.84991337 C2628.45927993 3453.13784435 2626.52165061 3450.65581978 2624.5625 3448.125 C2623.84707031 3447.16207031 2623.13164062 3446.19914062 2622.39453125 3445.20703125 C2619.54876894 3441.38156039 2616.64900978 3437.59768679 2613.75 3433.8125 C2613.19836182 3433.0920752 2612.64672363 3432.37165039 2612.07836914 3431.62939453 C2610.94888018 3430.15467048 2609.81924035 3428.68006197 2608.68945312 3427.20556641 C2605.95733178 3423.63880568 2603.22880728 3420.06929641 2600.5 3416.5 C2599.4166848 3415.08331947 2598.33335145 3413.66665282 2597.25 3412.25 C2447.74999988 3216.74999985 2447.74999988 3216.74999985 2446.12426758 3214.62402344 C2445.04339983 3213.21059349 2443.96250799 3211.79718196 2442.8815918 3210.38378906 C2440.13533495 3206.79275299 2437.38952697 3203.2013752 2434.64453125 3199.609375 C2429.77129775 3193.23318164 2424.8957448 3186.85893186 2420 3180.5 C2414.54091682 3173.40936531 2409.106922 3166.29963842 2403.67333984 3159.18945312 C2400.94966736 3155.62571008 2398.22478337 3152.06289369 2395.5 3148.5 C2394.41666062 3147.08333796 2393.33332729 3145.66667128 2392.25 3144.25 C2391.71375 3143.54875 2391.1775 3142.8475 2390.625 3142.125 C2337 3072 2283.375 3001.875 1748.75 2302.75 C1748.21358887 2302.04858887 1747.67717773 2301.34717773 1747.12451172 2300.62451172 C1746.0426126 2299.20962051 1744.96090646 2297.79458172 1743.87939453 2296.37939453 C1741.15069128 2292.80932057 1738.41854866 2289.24197609 1735.6796875 2285.6796875 C1728.66108941 2276.54218942 1721.77124002 2267.32232844 1715 2258 C1710.64550305 2259.57876311 1708.22143821 2262.97452465 1705.375 2266.4375 C1704.30481635 2267.71474199 1703.23318219 2268.99076992 1702.16015625 2270.265625 C1701.62793457 2270.89919922 1701.09571289 2271.53277344 1700.54736328 2272.18554688 C1698.363679 2274.74615615 1696.09563951 2277.21499211 1693.8125 2279.6875 C1690.62263156 2283.16136309 1687.57951106 2286.69910025 1684.625 2290.375 C1680.75781137 2295.1714071 1676.65019284 2299.6704146 1672.44189453 2304.16357422 C1669.32460664 2307.51081785 1666.36433518 2310.92995906 1663.5 2314.5 C1659.6794151 2319.26188842 1655.60932197 2323.71435594 1651.43920898 2328.16625977 C1648.34219916 2331.491548 1645.40378316 2334.88719939 1642.5625 2338.4375 C1638.53553256 2343.45841948 1634.20785297 2348.12421817 1629.79931641 2352.80615234 C1625.75731413 2357.12226878 1622.00404583 2361.60503631 1618.30859375 2366.22265625 C1615.64720542 2369.42442799 1612.84537754 2372.46234918 1610 2375.5 C1606.35111551 2379.39576281 1602.84301562 2383.33334284 1599.5 2387.5 C1595.68005989 2392.26108478 1591.61061181 2396.71273025 1587.44140625 2401.1640625 C1584.32431446 2404.51116869 1581.36418887 2407.93014141 1578.5 2411.5 C1574.68005989 2416.26108478 1570.61061181 2420.71273025 1566.44140625 2425.1640625 C1563.32431446 2428.51116869 1560.36418887 2431.93014141 1557.5 2435.5 C1553.68005989 2440.26108478 1549.61061181 2444.71273025 1545.44140625 2449.1640625 C1542.32431446 2452.51116869 1539.36418887 2455.93014141 1536.5 2459.5 C1532.68005989 2464.26108478 1528.61061181 2468.71273025 1524.44140625 2473.1640625 C1521.32431446 2476.51116869 1518.36418887 2479.93014141 1515.5 2483.5 C1511.68005989 2488.26108478 1507.61061181 2492.71273025 1503.44140625 2497.1640625 C1500.32431446 2500.51116869 1497.36418887 2503.93014141 1494.5 2507.5 C1490.68005989 2512.26108478 1486.61061181 2516.71273025 1482.44140625 2521.1640625 C1479.32431446 2524.51116869 1476.36418887 2527.93014141 1473.5 2531.5 C1469.68005989 2536.26108478 1465.61061181 2540.71273025 1461.44140625 2545.1640625 C1458.32431446 2548.51116869 1455.36418887 2551.93014141 1452.5 2555.5 C1448.6794151 2560.26188842 1444.60932197 2564.71435594 1440.43920898 2569.16625977 C1437.34219916 2572.491548 1434.40378316 2575.88719939 1431.5625 2579.4375 C1427.53553256 2584.45841948 1423.20785297 2589.12421817 1418.79931641 2593.80615234 C1414.75731413 2598.12226878 1411.00404583 2602.60503631 1407.30859375 2607.22265625 C1404.64720542 2610.42442799 1401.84537754 2613.46234918 1399 2616.5 C1395.35111551 2620.39576281 1391.84301562 2624.33334284 1388.5 2628.5 C1384.68005989 2633.26108478 1380.61061181 2637.71273025 1376.44140625 2642.1640625 C1373.32431446 2645.51116869 1370.36418887 2648.93014141 1367.5 2652.5 C1363.68005989 2657.26108478 1359.61061181 2661.71273025 1355.44140625 2666.1640625 C1352.32431446 2669.51116869 1349.36418887 2672.93014141 1346.5 2676.5 C1342.68005989 2681.26108478 1338.61061181 2685.71273025 1334.44140625 2690.1640625 C1331.32431446 2693.51116869 1328.36418887 2696.93014141 1325.5 2700.5 C1321.68005989 2705.26108478 1317.61061181 2709.71273025 1313.44140625 2714.1640625 C1310.32431446 2717.51116869 1307.36418887 2720.93014141 1304.5 2724.5 C1300.68005989 2729.26108478 1296.61061181 2733.71273025 1292.44140625 2738.1640625 C1289.32431446 2741.51116869 1286.36418887 2744.93014141 1283.5 2748.5 C1279.68005989 2753.26108478 1275.61061181 2757.71273025 1271.44140625 2762.1640625 C1268.32431446 2765.51116869 1265.36418887 2768.93014141 1262.5 2772.5 C1258.68005989 2777.26108478 1254.61061181 2781.71273025 1250.44140625 2786.1640625 C1247.32431446 2789.51116869 1244.36418887 2792.93014141 1241.5 2796.5 C1237.6794151 2801.26188842 1233.60932197 2805.71435594 1229.43920898 2810.16625977 C1226.34219916 2813.491548 1223.40378316 2816.88719939 1220.5625 2820.4375 C1216.53553256 2825.45841948 1212.20785297 2830.12421817 1207.79931641 2834.80615234 C1203.75731413 2839.12226878 1200.00404583 2843.60503631 1196.30859375 2848.22265625 C1193.64720542 2851.42442799 1190.84537754 2854.46234918 1188 2857.5 C1184.35111551 2861.39576281 1180.84301562 2865.33334284 1177.5 2869.5 C1173.68005989 2874.26108478 1169.61061181 2878.71273025 1165.44140625 2883.1640625 C1162.32431446 2886.51116869 1159.36418887 2889.93014141 1156.5 2893.5 C1152.68005989 2898.26108478 1148.61061181 2902.71273025 1144.44140625 2907.1640625 C1141.32431446 2910.51116869 1138.36418887 2913.93014141 1135.5 2917.5 C1131.68005989 2922.26108478 1127.61061181 2926.71273025 1123.44140625 2931.1640625 C1120.32431446 2934.51116869 1117.36418887 2937.93014141 1114.5 2941.5 C1110.68005989 2946.26108478 1106.61061181 2950.71273025 1102.44140625 2955.1640625 C1099.32431446 2958.51116869 1096.36418887 2961.93014141 1093.5 2965.5 C1089.68005989 2970.26108478 1085.61061181 2974.71273025 1081.44140625 2979.1640625 C1078.32431446 2982.51116869 1075.36418887 2985.93014141 1072.5 2989.5 C1068.68005989 2994.26108478 1064.61061181 2998.71273025 1060.44140625 3003.1640625 C1057.32431446 3006.51116869 1054.36418887 3009.93014141 1051.5 3013.5 C1047.68005989 3018.26108478 1043.61061181 3022.71273025 1039.44140625 3027.1640625 C1036.32431446 3030.51116869 1033.36418887 3033.93014141 1030.5 3037.5 C1026.6794151 3042.26188842 1022.60932197 3046.71435594 1018.43920898 3051.16625977 C1015.34219916 3054.491548 1012.40378316 3057.88719939 1009.5625 3061.4375 C1005.53553256 3066.45841948 1001.20785297 3071.12421817 996.79931641 3075.80615234 C992.75731413 3080.12226878 989.00404583 3084.60503631 985.30859375 3089.22265625 C982.64720542 3092.42442799 979.84537754 3095.46234918 977 3098.5 C973.35111551 3102.39576281 969.84301562 3106.33334284 966.5 3110.5 C962.68005989 3115.26108478 958.61061181 3119.71273025 954.44140625 3124.1640625 C951.32431446 3127.51116869 948.36418887 3130.93014141 945.5 3134.5 C941.68005989 3139.26108478 937.61061181 3143.71273025 933.44140625 3148.1640625 C930.32431446 3151.51116869 927.36418887 3154.93014141 924.5 3158.5 C920.68005989 3163.26108478 916.61061181 3167.71273025 912.44140625 3172.1640625 C909.32431446 3175.51116869 906.36418887 3178.93014141 903.5 3182.5 C899.68005989 3187.26108478 895.61061181 3191.71273025 891.44140625 3196.1640625 C888.32431446 3199.51116869 885.36418887 3202.93014141 882.5 3206.5 C878.68005989 3211.26108478 874.61061181 3215.71273025 870.44140625 3220.1640625 C867.32431446 3223.51116869 864.36418887 3226.93014141 861.5 3230.5 C857.68005989 3235.26108478 853.61061181 3239.71273025 849.44140625 3244.1640625 C846.32431446 3247.51116869 843.36418887 3250.93014141 840.5 3254.5 C836.68005989 3259.26108478 832.61061181 3263.71273025 828.44140625 3268.1640625 C825.32431446 3271.51116869 822.36418887 3274.93014141 819.5 3278.5 C815.16072656 3283.90436782 810.49603585 3288.94955123 805.7734375 3294.015625 C801.46894486 3298.63353761 797.35687595 3303.40761607 793.26171875 3308.2109375 C792.23716908 3309.41162041 791.21242354 3310.61213621 790.1875 3311.8125 C789.67018311 3312.41868164 789.15286621 3313.02486328 788.61987305 3313.64941406 C785.41497771 3317.3907082 782.14790722 3321.06115383 778.8125 3324.6875 C775.62263156 3328.16136309 772.57951106 3331.69910025 769.625 3335.375 C765.75781137 3340.1714071 761.65019284 3344.6704146 757.44189453 3349.16357422 C754.32460664 3352.51081785 751.36433518 3355.92995906 748.5 3359.5 C744.68005989 3364.26108478 740.61061181 3368.71273025 736.44140625 3373.1640625 C733.32431446 3376.51116869 730.36418887 3379.93014141 727.5 3383.5 C723.68005989 3388.26108478 719.61061181 3392.71273025 715.44140625 3397.1640625 C712.32431446 3400.51116869 709.36418887 3403.93014141 706.5 3407.5 C702.68005989 3412.26108478 698.61061181 3416.71273025 694.44140625 3421.1640625 C691.32431446 3424.51116869 688.36418887 3427.93014141 685.5 3431.5 C682.15697246 3435.666672 678.64877683 3439.60411992 675 3443.5 C670.53544798 3448.26880923 666.30299244 3453.15652247 662.23046875 3458.26953125 C661.49441406 3459.17058594 660.75835938 3460.07164062 660 3461 C659.53988086 3461.65407325 659.07976171 3462.30814649 658.60569957 3462.98204014 C654.38613202 3468.54161632 654.38613202 3468.54161632 650.76061351 3469.74054867 C648.11422983 3470.01731481 645.56913305 3470.04451505 642.90879917 3469.98438263 C641.90289341 3469.99361338 640.89698766 3470.00284414 639.86059991 3470.01235461 C636.47986234 3470.03358134 633.10215517 3469.99760951 629.72157288 3469.96203613 C627.27776721 3469.96552398 624.83396444 3469.97252723 622.39017767 3469.98274946 C617.07199778 3469.99692399 611.75472975 3469.98621704 606.43669319 3469.9536438 C598.52917658 3469.90534449 590.62211136 3469.9029589 582.71447414 3469.90997971 C569.41254565 3469.92048946 556.11093514 3469.89376565 542.8090992 3469.84584045 C529.63814788 3469.79850843 516.467329 3469.76771379 503.29629326 3469.75901794 C502.47744349 3469.75846803 501.65859372 3469.75791811 500.81493032 3469.75735153 C496.65642661 3469.75464487 492.49792278 3469.7522338 488.33941882 3469.74993652 C458.8826832 3469.73313203 429.42612058 3469.67922996 399.96948242 3469.60351562 C371.35230428 3469.53004389 342.73517348 3469.47337321 314.11791992 3469.43945312 C313.23585356 3469.43840092 312.3537872 3469.43734871 311.44499156 3469.43626461 C302.58693989 3469.42571648 293.72888786 3469.41550996 284.87083551 3469.40555374 C266.82587003 3469.38526389 248.78090764 3469.36269387 230.73594666 3469.33874512 C229.90626373 3469.3376468 229.07658081 3469.33654848 228.22175598 3469.33541688 C172.81443144 3469.26180825 117.40720507 3469.1348799 62 3469 C62.94257391 3467.72832614 63.88723776 3466.4582012 64.83276367 3465.1887207 C65.35859543 3464.48125198 65.88442719 3463.77378326 66.42619324 3463.0448761 C68.57235904 3460.25632336 70.89593501 3457.74726884 73.3125 3455.1875 C76.85419347 3451.39557819 80.24707297 3447.54717852 83.5 3443.5 C87.13499389 3438.98222187 90.9671029 3434.72181484 94.9140625 3430.48046875 C97.90441358 3427.24788253 100.73786329 3423.93294134 103.5 3420.5 C107.13499389 3415.98222187 110.9671029 3411.72181484 114.9140625 3407.48046875 C117.90441358 3404.24788253 120.73786329 3400.93294134 123.5 3397.5 C127.13499389 3392.98222187 130.9671029 3388.72181484 134.9140625 3384.48046875 C137.90441358 3381.24788253 140.73786329 3377.93294134 143.5 3374.5 C147.13499389 3369.98222187 150.9671029 3365.72181484 154.9140625 3361.48046875 C157.90441358 3358.24788253 160.73786329 3354.93294134 163.5 3351.5 C167.13499389 3346.98222187 170.9671029 3342.72181484 174.9140625 3338.48046875 C177.90441358 3335.24788253 180.73786329 3331.93294134 183.5 3328.5 C187.13499389 3323.98222187 190.9671029 3319.72181484 194.9140625 3315.48046875 C197.90441358 3312.24788253 200.73786329 3308.93294134 203.5 3305.5 C207.13499389 3300.98222187 210.9671029 3296.72181484 214.9140625 3292.48046875 C217.90441358 3289.24788253 220.73786329 3285.93294134 223.5 3282.5 C227.13499389 3277.98222187 230.9671029 3273.72181484 234.9140625 3269.48046875 C237.90441358 3266.24788253 240.73786329 3262.93294134 243.5 3259.5 C247.13499389 3254.98222187 250.9671029 3250.72181484 254.9140625 3246.48046875 C257.90441358 3243.24788253 260.73786329 3239.93294134 263.5 3236.5 C267.13499389 3231.98222187 270.9671029 3227.72181484 274.9140625 3223.48046875 C277.90441358 3220.24788253 280.73786329 3216.93294134 283.5 3213.5 C287.13499389 3208.98222187 290.9671029 3204.72181484 294.9140625 3200.48046875 C297.90441358 3197.24788253 300.73786329 3193.93294134 303.5 3190.5 C307.13499389 3185.98222187 310.9671029 3181.72181484 314.9140625 3177.48046875 C317.90441358 3174.24788253 320.73786329 3170.93294134 323.5 3167.5 C327.13499389 3162.98222187 330.9671029 3158.72181484 334.9140625 3154.48046875 C337.90441358 3151.24788253 340.73786329 3147.93294134 343.5 3144.5 C347.13499389 3139.98222187 350.9671029 3135.72181484 354.9140625 3131.48046875 C357.90441358 3128.24788253 360.73786329 3124.93294134 363.5 3121.5 C367.1356405 3116.98141824 370.96836402 3112.72016671 374.91625977 3108.47827148 C377.88715628 3105.2670095 380.69961077 3101.97372185 383.4375 3098.5625 C387.28045479 3093.78458662 391.36831329 3089.31005016 395.55615234 3084.83837891 C399.47906854 3080.62570895 403.11911024 3076.23586445 406.72265625 3071.74609375 C409.21826469 3068.73680948 411.83765143 3065.86061346 414.5 3063 C417.97419243 3059.26672745 421.3006871 3055.47628889 424.5 3051.5 C428.13499389 3046.98222187 431.9671029 3042.72181484 435.9140625 3038.48046875 C438.90441358 3035.24788253 441.73786329 3031.93294134 444.5 3028.5 C448.13499389 3023.98222187 451.9671029 3019.72181484 455.9140625 3015.48046875 C458.90441358 3012.24788253 461.73786329 3008.93294134 464.5 3005.5 C468.13499389 3000.98222187 471.9671029 2996.72181484 475.9140625 2992.48046875 C478.90441358 2989.24788253 481.73786329 2985.93294134 484.5 2982.5 C488.13499389 2977.98222187 491.9671029 2973.72181484 495.9140625 2969.48046875 C498.90441358 2966.24788253 501.73786329 2962.93294134 504.5 2959.5 C508.13499389 2954.98222187 511.9671029 2950.72181484 515.9140625 2946.48046875 C518.90441358 2943.24788253 521.73786329 2939.93294134 524.5 2936.5 C528.13499389 2931.98222187 531.9671029 2927.72181484 535.9140625 2923.48046875 C538.90441358 2920.24788253 541.73786329 2916.93294134 544.5 2913.5 C548.13499389 2908.98222187 551.9671029 2904.72181484 555.9140625 2900.48046875 C558.90441358 2897.24788253 561.73786329 2893.93294134 564.5 2890.5 C568.13499389 2885.98222187 571.9671029 2881.72181484 575.9140625 2877.48046875 C578.90441358 2874.24788253 581.73786329 2870.93294134 584.5 2867.5 C588.13499389 2862.98222187 591.9671029 2858.72181484 595.9140625 2854.48046875 C598.90441358 2851.24788253 601.73786329 2847.93294134 604.5 2844.5 C608.13499389 2839.98222187 611.9671029 2835.72181484 615.9140625 2831.48046875 C618.90441358 2828.24788253 621.73786329 2824.93294134 624.5 2821.5 C628.13499389 2816.98222187 631.9671029 2812.72181484 635.9140625 2808.48046875 C638.90441358 2805.24788253 641.73786329 2801.93294134 644.5 2798.5 C648.13499389 2793.98222187 651.9671029 2789.72181484 655.9140625 2785.48046875 C658.90441358 2782.24788253 661.73786329 2778.93294134 664.5 2775.5 C668.13499389 2770.98222187 671.9671029 2766.72181484 675.9140625 2762.48046875 C678.90441358 2759.24788253 681.73786329 2755.93294134 684.5 2752.5 C688.1356405 2747.98141824 691.96836402 2743.72016671 695.91625977 2739.47827148 C698.88715628 2736.2670095 701.69961077 2732.97372185 704.4375 2729.5625 C708.28045479 2724.78458662 712.36831329 2720.31005016 716.55615234 2715.83837891 C720.47906854 2711.62570895 724.11911024 2707.23586445 727.72265625 2702.74609375 C730.21826469 2699.73680948 732.83765143 2696.86061346 735.5 2694 C738.97419243 2690.26672745 742.3006871 2686.47628889 745.5 2682.5 C749.13499389 2677.98222187 752.9671029 2673.72181484 756.9140625 2669.48046875 C759.90441358 2666.24788253 762.73786329 2662.93294134 765.5 2659.5 C769.13499389 2654.98222187 772.9671029 2650.72181484 776.9140625 2646.48046875 C779.90441358 2643.24788253 782.73786329 2639.93294134 785.5 2636.5 C789.13499389 2631.98222187 792.9671029 2627.72181484 796.9140625 2623.48046875 C799.90441358 2620.24788253 802.73786329 2616.93294134 805.5 2613.5 C809.13499389 2608.98222187 812.9671029 2604.72181484 816.9140625 2600.48046875 C819.90441358 2597.24788253 822.73786329 2593.93294134 825.5 2590.5 C829.13499389 2585.98222187 832.9671029 2581.72181484 836.9140625 2577.48046875 C839.90441358 2574.24788253 842.73786329 2570.93294134 845.5 2567.5 C849.13499389 2562.98222187 852.9671029 2558.72181484 856.9140625 2554.48046875 C859.90441358 2551.24788253 862.73786329 2547.93294134 865.5 2544.5 C869.13499389 2539.98222187 872.9671029 2535.72181484 876.9140625 2531.48046875 C879.90441358 2528.24788253 882.73786329 2524.93294134 885.5 2521.5 C889.13499389 2516.98222187 892.9671029 2512.72181484 896.9140625 2508.48046875 C899.90441358 2505.24788253 902.73786329 2501.93294134 905.5 2498.5 C909.13499389 2493.98222187 912.9671029 2489.72181484 916.9140625 2485.48046875 C919.90441358 2482.24788253 922.73786329 2478.93294134 925.5 2475.5 C929.13499389 2470.98222187 932.9671029 2466.72181484 936.9140625 2462.48046875 C939.90441358 2459.24788253 942.73786329 2455.93294134 945.5 2452.5 C949.13499389 2447.98222187 952.9671029 2443.72181484 956.9140625 2439.48046875 C959.90441358 2436.24788253 962.73786329 2432.93294134 965.5 2429.5 C969.13499389 2424.98222187 972.9671029 2420.72181484 976.9140625 2416.48046875 C979.90441358 2413.24788253 982.73786329 2409.93294134 985.5 2406.5 C989.13499389 2401.98222187 992.9671029 2397.72181484 996.9140625 2393.48046875 C999.90441358 2390.24788253 1002.73786329 2386.93294134 1005.5 2383.5 C1009.1356405 2378.98141824 1012.96836402 2374.72016671 1016.91625977 2370.47827148 C1019.88715628 2367.2670095 1022.69961077 2363.97372185 1025.4375 2360.5625 C1029.28045479 2355.78458662 1033.36831329 2351.31005016 1037.55615234 2346.83837891 C1041.47906854 2342.62570895 1045.11911024 2338.23586445 1048.72265625 2333.74609375 C1051.21826469 2330.73680948 1053.83765143 2327.86061346 1056.5 2325 C1059.97419243 2321.26672745 1063.3006871 2317.47628889 1066.5 2313.5 C1070.13499389 2308.98222187 1073.9671029 2304.72181484 1077.9140625 2300.48046875 C1080.90441358 2297.24788253 1083.73786329 2293.93294134 1086.5 2290.5 C1090.13499389 2285.98222187 1093.9671029 2281.72181484 1097.9140625 2277.48046875 C1100.90441358 2274.24788253 1103.73786329 2270.93294134 1106.5 2267.5 C1110.13499389 2262.98222187 1113.9671029 2258.72181484 1117.9140625 2254.48046875 C1120.90441358 2251.24788253 1123.73786329 2247.93294134 1126.5 2244.5 C1130.13499389 2239.98222187 1133.9671029 2235.72181484 1137.9140625 2231.48046875 C1140.90441358 2228.24788253 1143.73786329 2224.93294134 1146.5 2221.5 C1150.13499389 2216.98222187 1153.9671029 2212.72181484 1157.9140625 2208.48046875 C1160.90441358 2205.24788253 1163.73786329 2201.93294134 1166.5 2198.5 C1170.13499389 2193.98222187 1173.9671029 2189.72181484 1177.9140625 2185.48046875 C1180.90441358 2182.24788253 1183.73786329 2178.93294134 1186.5 2175.5 C1190.13499389 2170.98222187 1193.9671029 2166.72181484 1197.9140625 2162.48046875 C1200.90441358 2159.24788253 1203.73786329 2155.93294134 1206.5 2152.5 C1210.13499389 2147.98222187 1213.9671029 2143.72181484 1217.9140625 2139.48046875 C1220.90441358 2136.24788253 1223.73786329 2132.93294134 1226.5 2129.5 C1230.13499389 2124.98222187 1233.9671029 2120.72181484 1237.9140625 2116.48046875 C1240.90441358 2113.24788253 1243.73786329 2109.93294134 1246.5 2106.5 C1250.13499389 2101.98222187 1253.9671029 2097.72181484 1257.9140625 2093.48046875 C1260.90441358 2090.24788253 1263.73786329 2086.93294134 1266.5 2083.5 C1270.13499389 2078.98222187 1273.9671029 2074.72181484 1277.9140625 2070.48046875 C1280.90441358 2067.24788253 1283.73786329 2063.93294134 1286.5 2060.5 C1290.13499389 2055.98222187 1293.9671029 2051.72181484 1297.9140625 2047.48046875 C1300.90441358 2044.24788253 1303.73786329 2040.93294134 1306.5 2037.5 C1310.13499389 2032.98222187 1313.9671029 2028.72181484 1317.9140625 2024.48046875 C1320.90441358 2021.24788253 1323.73786329 2017.93294134 1326.5 2014.5 C1330.1356405 2009.98141824 1333.96836402 2005.72016671 1337.91625977 2001.47827148 C1340.88715628 1998.2670095 1343.69961077 1994.97372185 1346.4375 1991.5625 C1350.28045479 1986.78458662 1354.36831329 1982.31005016 1358.55615234 1977.83837891 C1362.47906854 1973.62570895 1366.11911024 1969.23586445 1369.72265625 1964.74609375 C1372.21826469 1961.73680948 1374.83765143 1958.86061346 1377.5 1956 C1380.97419243 1952.26672745 1384.3006871 1948.47628889 1387.5 1944.5 C1391.13499389 1939.98222187 1394.9671029 1935.72181484 1398.9140625 1931.48046875 C1402.69257312 1927.39587766 1406.19290004 1923.1256763 1409.6796875 1918.7890625 C1412.2328208 1915.7201447 1414.90632773 1912.79635796 1417.625 1909.875 C1422.54792899 1904.53898716 1422.54792899 1904.53898716 1427.3125 1899.0625 C1427.88613281 1898.39347656 1428.45976563 1897.72445313 1429.05078125 1897.03515625 C1430.26524465 1894.98280737 1430.26524465 1894.98280737 1429.41015625 1892.546875 C1427.8815137 1889.78600258 1426.18298709 1887.58094652 1424.125 1885.1875 C1420.28218355 1880.60449418 1416.63204103 1875.92362423 1413.0625 1871.125 C1409.03317058 1865.71576324 1404.97453567 1860.33509688 1400.85302734 1854.99560547 C1397.45222901 1850.58975097 1394.06709999 1846.17213595 1390.6875 1841.75 C1390.13755371 1841.03046143 1389.58760742 1840.31092285 1389.02099609 1839.56958008 C1387.90067765 1838.10370781 1386.78039785 1836.637806 1385.66015625 1835.171875 C1384.05534906 1833.0724096 1382.44972084 1830.97357536 1380.84375 1828.875 C1374.19877689 1820.19105252 1367.56713916 1811.49704546 1360.94213867 1802.79785156 C1356.80069071 1797.36068017 1352.65371867 1791.92780196 1348.5 1786.5 C1343.65822 1780.17308548 1338.82696734 1773.83822215 1334 1767.5 C1327.01179193 1758.32428742 1320.00962361 1749.15935827 1313 1740 C1305.3045205 1729.94444528 1297.62072473 1719.88012797 1289.94873047 1709.80664062 C1283.64363804 1701.52921705 1277.32376677 1693.26316057 1271 1685 C1263.30229509 1674.94153737 1255.61611106 1664.87443554 1247.94213867 1654.79785156 C1243.80069071 1649.36068017 1239.65371867 1643.92780196 1235.5 1638.5 C1230.65822 1632.17308548 1225.82696734 1625.83822215 1221 1619.5 C1214.01179193 1610.32428742 1207.00962361 1601.15935827 1200 1592 C1192.3045205 1581.94444528 1184.62072473 1571.88012797 1176.94873047 1561.80664062 C1170.64363804 1553.52921705 1164.32376677 1545.26316057 1158 1537 C1150.30229509 1526.94153737 1142.61611106 1516.87443554 1134.94213867 1506.79785156 C1130.80069071 1501.36068017 1126.65371867 1495.92780196 1122.5 1490.5 C1117.65822 1484.17308548 1112.82696734 1477.83822215 1108 1471.5 C1101.01179193 1462.32428742 1094.00962361 1453.15935827 1087 1444 C1079.3045205 1433.94444528 1071.62072473 1423.88012797 1063.94873047 1413.80664062 C1057.64363804 1405.52921705 1051.32376677 1397.26316057 1045 1389 C1037.30229509 1378.94153737 1029.61611106 1368.87443554 1021.94213867 1358.79785156 C1017.80069071 1353.36068017 1013.65371867 1347.92780196 1009.5 1342.5 C1004.65822 1336.17308548 999.82696734 1329.83822215 995 1323.5 C988.01179193 1314.32428742 981.00962361 1305.15935827 974 1296 C966.3045205 1285.94444528 958.62072473 1275.88012797 950.94873047 1265.80664062 C944.64363804 1257.52921705 938.32376677 1249.26316057 932 1241 C924.30229509 1230.94153737 916.61611106 1220.87443554 908.94213867 1210.79785156 C904.80069071 1205.36068017 900.65371867 1199.92780196 896.5 1194.5 C891.65822 1188.17308548 886.82696734 1181.83822215 882 1175.5 C875.01179193 1166.32428742 868.00962361 1157.15935827 861 1148 C853.3045205 1137.94444528 845.62072473 1127.88012797 837.94873047 1117.80664062 C831.64363804 1109.52921705 825.32376677 1101.26316057 819 1093 C811.30229509 1082.94153737 803.61611106 1072.87443554 795.94213867 1062.79785156 C791.80069071 1057.36068017 787.65371867 1051.92780196 783.5 1046.5 C778.65822 1040.17308548 773.82696734 1033.83822215 769 1027.5 C762.01179193 1018.32428742 755.00962361 1009.15935827 748 1000 C740.3045205 989.94444528 732.62072473 979.88012797 724.94873047 969.80664062 C718.64363804 961.52921705 712.32376677 953.26316057 706 945 C698.30229509 934.94153737 690.61611106 924.87443554 682.94213867 914.79785156 C678.80069071 909.36068017 674.65371867 903.92780196 670.5 898.5 C665.65822 892.17308548 660.82696734 885.83822215 656 879.5 C649.01179193 870.32428742 642.00962361 861.15935827 635 852 C627.3045205 841.94444528 619.62072473 831.88012797 611.94873047 821.80664062 C605.64363804 813.52921705 599.32376677 805.26316057 593 797 C585.30229509 786.94153737 577.61611106 776.87443554 569.94213867 766.79785156 C565.80069071 761.36068017 561.65371867 755.92780196 557.5 750.5 C552.65822 744.17308548 547.82696734 737.83822215 543 731.5 C536.01179193 722.32428742 529.00962361 713.15935827 522 704 C514.3045205 693.94444528 506.62072473 683.88012797 498.94873047 673.80664062 C492.64363804 665.52921705 486.32376677 657.26316057 480 649 C472.30229509 638.94153737 464.61611106 628.87443554 456.94213867 618.79785156 C452.80069071 613.36068017 448.65371867 607.92780196 444.5 602.5 C439.65822 596.17308548 434.82696734 589.83822215 430 583.5 C423.01179193 574.32428742 416.00962361 565.15935827 409 556 C401.3045205 545.94444528 393.62072473 535.88012797 385.94873047 525.80664062 C379.64363804 517.52921705 373.32376677 509.26316057 367 501 C359.30229509 490.94153737 351.61611106 480.87443554 343.94213867 470.79785156 C339.80069071 465.36068017 335.65371867 459.92780196 331.5 454.5 C326.65822 448.17308548 321.82696734 441.83822215 317 435.5 C310.01179193 426.32428742 303.00962361 417.15935827 296 408 C288.3045205 397.94444528 280.62072473 387.88012797 272.94873047 377.80664062 C266.64363804 369.52921705 260.32376677 361.26316057 254 353 C246.30229509 342.94153737 238.61611106 332.87443554 230.94213867 322.79785156 C226.80069071 317.36068017 222.65371867 311.92780196 218.5 306.5 C213.65822 300.17308548 208.82696734 293.83822215 204 287.5 C197.01179193 278.32428742 190.00962361 269.15935827 183 260 C175.3045205 249.94444528 167.62072473 239.88012797 159.94873047 229.80664062 C153.64363804 221.52921705 147.32376677 213.26316057 141 205 C133.30229509 194.94153737 125.61611106 184.87443554 117.94213867 174.79785156 C113.80069071 169.36068017 109.65371867 163.92780196 105.5 158.5 C100.65822 152.17308548 95.82696734 145.83822215 91 139.5 C84.01179193 130.32428742 77.00962361 121.15935827 70 112 C62.3045205 101.94444528 54.62072473 91.88012797 46.94873047 81.80664062 C42.74184708 76.28377857 38.53043501 70.76442616 34.3125 65.25 C33.52335205 64.21806519 33.52335205 64.21806519 32.71826172 63.1652832 C29.55968566 59.03592527 26.39829192 54.90876022 23.22998047 50.78686523 C22.16129313 49.38898838 21.09907987 47.98613785 20.04345703 46.57836914 C17.09825398 42.66170466 14.06261356 38.88710565 10.84765625 35.1875 C10.15526855 34.35516846 9.46288086 33.52283691 8.74951172 32.6652832 C7.42916549 31.0787104 6.07247475 29.52128474 4.67236328 28.00463867 C-0.17188032 22.04372333 -0.36944415 17.02753792 -0.17651367 9.6418457 C-0.16377159 8.71379372 -0.15102951 7.78574173 -0.13790131 6.82956696 C-0.10479823 4.55250601 -0.05846947 2.27652724 0 0 Z M680 333 C680.63184204 334.11544693 681.26368408 335.23089386 681.91467285 336.38014221 C682.270084 337.00758111 682.62549515 337.63502001 682.99167633 338.28147221 C684.0677699 340.11550305 685.23835612 341.76439657 686.59375 343.40234375 C687.06022949 343.97380127 687.52670898 344.54525879 688.00732422 345.1340332 C688.49990723 345.72917725 688.99249023 346.32432129 689.5 346.9375 C693.74114978 352.14811125 697.86936135 357.41869575 701.875 362.8125 C706.17779881 368.59987777 710.5578914 374.31884086 715 380 C719.89700989 386.26531173 724.71017002 392.58423891 729.4609375 398.9609375 C733.2436161 404.02452313 737.10790795 409.0201617 741 414 C745.39449814 419.62265483 749.73649945 425.27735252 754 431 C758.20143769 436.63919469 762.47978521 442.21107286 766.8125 447.75 C771.78615996 454.11012269 776.67156699 460.52897507 781.5 467 C788.03855978 475.76075443 794.71876758 484.40241697 801.45117188 493.01464844 C809.15285514 502.88698266 816.72396425 512.86193929 824.32666016 522.81054688 C827.05033263 526.37428991 829.7752013 529.93711803 832.5 533.5 C835.78577558 537.79640199 839.07125741 542.09302712 842.35546875 546.390625 C847.22870225 552.76681836 852.1042552 559.14106814 857 565.5 C862.45908318 572.59063469 867.893078 579.70036158 873.32666016 586.81054688 C876.05033263 590.37428991 878.7752013 593.93711803 881.5 597.5 C884.78577558 601.79640199 888.07125741 606.09302712 891.35546875 610.390625 C896.22870225 616.76681836 901.1042552 623.14106814 906 629.5 C911.45908318 636.59063469 916.893078 643.70036158 922.32666016 650.81054688 C925.05033263 654.37428991 927.7752013 657.93711803 930.5 661.5 C933.78577558 665.79640199 937.07125741 670.09302712 940.35546875 674.390625 C945.22870225 680.76681836 950.1042552 687.14106814 955 693.5 C960.45908318 700.59063469 965.893078 707.70036158 971.32666016 714.81054688 C974.05033263 718.37428991 976.7752013 721.93711803 979.5 725.5 C982.78577558 729.79640199 986.07125741 734.09302712 989.35546875 738.390625 C994.22870225 744.76681836 999.1042552 751.14106814 1004 757.5 C1009.45908318 764.59063469 1014.893078 771.70036158 1020.32666016 778.81054688 C1023.05033263 782.37428991 1025.7752013 785.93711803 1028.5 789.5 C1031.78577558 793.79640199 1035.07125741 798.09302712 1038.35546875 802.390625 C1043.22870225 808.76681836 1048.1042552 815.14106814 1053 821.5 C1058.45908318 828.59063469 1063.893078 835.70036158 1069.32666016 842.81054688 C1072.05033263 846.37428991 1074.7752013 849.93711803 1077.5 853.5 C1080.78577558 857.79640199 1084.07125741 862.09302712 1087.35546875 866.390625 C1092.22870225 872.76681836 1097.1042552 879.14106814 1102 885.5 C1107.45908318 892.59063469 1112.893078 899.70036158 1118.32666016 906.81054688 C1121.05033264 910.37428992 1123.77521663 913.93710631 1126.5 917.5 C1127.58333938 918.91666204 1128.66667271 920.33332872 1129.75 921.75 C1130.28625 922.45125 1130.8225 923.1525 1131.375 923.875 C1136.24999999 930.24999999 1136.24999999 930.24999999 1137.87573242 932.37597656 C1138.95660017 933.78940651 1140.03749201 935.20281804 1141.1184082 936.61621094 C1143.86466505 940.20724701 1146.61047303 943.7986248 1149.35546875 947.390625 C1154.22870225 953.76681836 1159.1042552 960.14106814 1164 966.5 C1169.45908318 973.59063469 1174.893078 980.70036158 1180.32666016 987.81054688 C1183.05033263 991.37428991 1185.7752013 994.93711803 1188.5 998.5 C1191.78577558 1002.79640199 1195.07125741 1007.09302712 1198.35546875 1011.390625 C1203.22870225 1017.76681836 1208.1042552 1024.14106814 1213 1030.5 C1218.45908318 1037.59063469 1223.893078 1044.70036158 1229.32666016 1051.81054688 C1232.05033263 1055.37428991 1234.7752013 1058.93711803 1237.5 1062.5 C1240.78577558 1066.79640199 1244.07125741 1071.09302712 1247.35546875 1075.390625 C1252.22870225 1081.76681836 1257.1042552 1088.14106814 1262 1094.5 C1267.45908318 1101.59063469 1272.893078 1108.70036158 1278.32666016 1115.81054688 C1281.05033263 1119.37428991 1283.7752013 1122.93711803 1286.5 1126.5 C1289.78577558 1130.79640199 1293.07125741 1135.09302712 1296.35546875 1139.390625 C1301.22870225 1145.76681836 1306.1042552 1152.14106814 1311 1158.5 C1316.45908318 1165.59063469 1321.893078 1172.70036158 1327.32666016 1179.81054688 C1330.05033263 1183.37428991 1332.7752013 1186.93711803 1335.5 1190.5 C1338.78577558 1194.79640199 1342.07125741 1199.09302712 1345.35546875 1203.390625 C1350.22870225 1209.76681836 1355.1042552 1216.14106814 1360 1222.5 C1365.45908318 1229.59063469 1370.893078 1236.70036158 1376.32666016 1243.81054688 C1379.05033263 1247.37428991 1381.7752013 1250.93711803 1384.5 1254.5 C1387.78577558 1258.79640199 1391.07125741 1263.09302712 1394.35546875 1267.390625 C1399.22870225 1273.76681836 1404.1042552 1280.14106814 1409 1286.5 C1414.45908318 1293.59063469 1419.893078 1300.70036158 1425.32666016 1307.81054688 C1428.05033263 1311.37428991 1430.7752013 1314.93711803 1433.5 1318.5 C1436.78577558 1322.79640199 1440.07125741 1327.09302712 1443.35546875 1331.390625 C1448.22870225 1337.76681836 1453.1042552 1344.14106814 1458 1350.5 C1463.45908318 1357.59063469 1468.893078 1364.70036158 1474.32666016 1371.81054688 C1477.05033263 1375.37428991 1479.7752013 1378.93711803 1482.5 1382.5 C1485.78577558 1386.79640199 1489.07125741 1391.09302712 1492.35546875 1395.390625 C1497.22870225 1401.76681836 1502.1042552 1408.14106814 1507 1414.5 C1512.45908318 1421.59063469 1517.893078 1428.70036158 1523.32666016 1435.81054688 C1526.05033263 1439.37428991 1528.7752013 1442.93711803 1531.5 1446.5 C1534.78577558 1450.79640199 1538.07125741 1455.09302712 1541.35546875 1459.390625 C1546.22870225 1465.76681836 1551.1042552 1472.14106814 1556 1478.5 C1561.45908318 1485.59063469 1566.893078 1492.70036158 1572.32666016 1499.81054688 C1575.05033264 1503.37428992 1577.77521663 1506.93710631 1580.5 1510.5 C1581.58333938 1511.91666204 1582.66667271 1513.33332872 1583.75 1514.75 C1584.28625 1515.45125 1584.8225 1516.1525 1585.375 1516.875 C1590.24999999 1523.24999999 1590.24999999 1523.24999999 1591.87573242 1525.37597656 C1592.95660017 1526.78940651 1594.03749201 1528.20281804 1595.1184082 1529.61621094 C1597.86466505 1533.20724701 1600.61047303 1536.7986248 1603.35546875 1540.390625 C1608.22870225 1546.76681836 1613.1042552 1553.14106814 1618 1559.5 C1623.45908318 1566.59063469 1628.893078 1573.70036158 1634.32666016 1580.81054688 C1637.05033263 1584.37428991 1639.7752013 1587.93711803 1642.5 1591.5 C1645.78577558 1595.79640199 1649.07125741 1600.09302712 1652.35546875 1604.390625 C1657.22870225 1610.76681836 1662.1042552 1617.14106814 1667 1623.5 C1672.45908318 1630.59063469 1677.893078 1637.70036158 1683.32666016 1644.81054688 C1686.05033263 1648.37428991 1688.7752013 1651.93711803 1691.5 1655.5 C1694.78577558 1659.79640199 1698.07125741 1664.09302712 1701.35546875 1668.390625 C1706.22870225 1674.76681836 1711.1042552 1681.14106814 1716 1687.5 C1721.45908318 1694.59063469 1726.893078 1701.70036158 1732.32666016 1708.81054688 C1735.05033263 1712.37428991 1737.7752013 1715.93711803 1740.5 1719.5 C1743.78577558 1723.79640199 1747.07125741 1728.09302712 1750.35546875 1732.390625 C1755.22870225 1738.76681836 1760.1042552 1745.14106814 1765 1751.5 C1770.45908318 1758.59063469 1775.893078 1765.70036158 1781.32666016 1772.81054688 C1784.05033263 1776.37428991 1786.7752013 1779.93711803 1789.5 1783.5 C1792.78577558 1787.79640199 1796.07125741 1792.09302712 1799.35546875 1796.390625 C1804.22870225 1802.76681836 1809.1042552 1809.14106814 1814 1815.5 C1819.45908318 1822.59063469 1824.893078 1829.70036158 1830.32666016 1836.81054688 C1833.05033263 1840.37428991 1835.7752013 1843.93711803 1838.5 1847.5 C1841.78577558 1851.79640199 1845.07125741 1856.09302712 1848.35546875 1860.390625 C1853.22870225 1866.76681836 1858.1042552 1873.14106814 1863 1879.5 C1868.45908318 1886.59063469 1873.893078 1893.70036158 1879.32666016 1900.81054688 C1882.05033263 1904.37428991 1884.7752013 1907.93711803 1887.5 1911.5 C1890.78577558 1915.79640199 1894.07125741 1920.09302712 1897.35546875 1924.390625 C1902.22870225 1930.76681836 1907.1042552 1937.14106814 1912 1943.5 C1917.45908318 1950.59063469 1922.893078 1957.70036158 1928.32666016 1964.81054688 C1931.05033263 1968.37428991 1933.7752013 1971.93711803 1936.5 1975.5 C1939.78577558 1979.79640199 1943.07125741 1984.09302712 1946.35546875 1988.390625 C1951.22870225 1994.76681836 1956.1042552 2001.14106814 1961 2007.5 C1966.45908318 2014.59063469 1971.893078 2021.70036158 1977.32666016 2028.81054688 C1980.05033264 2032.37428992 1982.77521663 2035.93710631 1985.5 2039.5 C1986.58333938 2040.91666204 1987.66667271 2042.33332872 1988.75 2043.75 C1989.28625 2044.45125 1989.8225 2045.1525 1990.375 2045.875 C1995.24999999 2052.24999999 1995.24999999 2052.24999999 1996.87573242 2054.37597656 C1997.95660017 2055.78940651 1999.03749201 2057.20281804 2000.1184082 2058.61621094 C2002.86466505 2062.20724701 2005.61047303 2065.7986248 2008.35546875 2069.390625 C2013.22870225 2075.76681836 2018.1042552 2082.14106814 2023 2088.5 C2028.45908318 2095.59063469 2033.893078 2102.70036158 2039.32666016 2109.81054688 C2042.05033263 2113.37428991 2044.7752013 2116.93711803 2047.5 2120.5 C2050.78577558 2124.79640199 2054.07125741 2129.09302712 2057.35546875 2133.390625 C2062.22870225 2139.76681836 2067.1042552 2146.14106814 2072 2152.5 C2077.45908318 2159.59063469 2082.893078 2166.70036158 2088.32666016 2173.81054688 C2091.05033263 2177.37428991 2093.7752013 2180.93711803 2096.5 2184.5 C2099.78577558 2188.79640199 2103.07125741 2193.09302712 2106.35546875 2197.390625 C2111.22870225 2203.76681836 2116.1042552 2210.14106814 2121 2216.5 C2126.45908318 2223.59063469 2131.893078 2230.70036158 2137.32666016 2237.81054688 C2140.05033263 2241.37428991 2142.7752013 2244.93711803 2145.5 2248.5 C2148.78577558 2252.79640199 2152.07125741 2257.09302712 2155.35546875 2261.390625 C2160.22870225 2267.76681836 2165.1042552 2274.14106814 2170 2280.5 C2175.45908318 2287.59063469 2180.893078 2294.70036158 2186.32666016 2301.81054688 C2189.05033263 2305.37428991 2191.7752013 2308.93711803 2194.5 2312.5 C2197.78577558 2316.79640199 2201.07125741 2321.09302712 2204.35546875 2325.390625 C2209.22870225 2331.76681836 2214.1042552 2338.14106814 2219 2344.5 C2224.45908318 2351.59063469 2229.893078 2358.70036158 2235.32666016 2365.81054688 C2238.05033263 2369.37428991 2240.7752013 2372.93711803 2243.5 2376.5 C2246.78577558 2380.79640199 2250.07125741 2385.09302712 2253.35546875 2389.390625 C2258.22870225 2395.76681836 2263.1042552 2402.14106814 2268 2408.5 C2273.45908318 2415.59063469 2278.893078 2422.70036158 2284.32666016 2429.81054688 C2287.05033263 2433.37428991 2289.7752013 2436.93711803 2292.5 2440.5 C2295.78577558 2444.79640199 2299.07125741 2449.09302712 2302.35546875 2453.390625 C2307.22870225 2459.76681836 2312.1042552 2466.14106814 2317 2472.5 C2322.45908318 2479.59063469 2327.893078 2486.70036158 2333.32666016 2493.81054688 C2336.05033263 2497.37428991 2338.7752013 2500.93711803 2341.5 2504.5 C2344.78577558 2508.79640199 2348.07125741 2513.09302712 2351.35546875 2517.390625 C2356.22870225 2523.76681836 2361.1042552 2530.14106814 2366 2536.5 C2371.45908318 2543.59063469 2376.893078 2550.70036158 2382.32666016 2557.81054688 C2385.05033263 2561.37428991 2387.7752013 2564.93711803 2390.5 2568.5 C2393.78577558 2572.79640199 2397.07125741 2577.09302712 2400.35546875 2581.390625 C2405.22870225 2587.76681836 2410.1042552 2594.14106814 2415 2600.5 C2420.45908318 2607.59063469 2425.893078 2614.70036158 2431.32666016 2621.81054688 C2434.05033264 2625.37428992 2436.77521663 2628.93710631 2439.5 2632.5 C2440.58333938 2633.91666204 2441.66667271 2635.33332872 2442.75 2636.75 C2443.28625 2637.45125 2443.8225 2638.1525 2444.375 2638.875 C2449.24999998 2645.24999997 2449.24999998 2645.24999997 2450.87573242 2647.37597656 C2451.95660017 2648.78940651 2453.03749201 2650.20281804 2454.1184082 2651.61621094 C2456.86466505 2655.20724701 2459.61047303 2658.7986248 2462.35546875 2662.390625 C2467.22870225 2668.76681836 2472.1042552 2675.14106814 2477 2681.5 C2482.45908318 2688.59063469 2487.893078 2695.70036158 2493.32666016 2702.81054688 C2496.05033263 2706.37428991 2498.7752013 2709.93711803 2501.5 2713.5 C2504.78577558 2717.79640199 2508.07125741 2722.09302712 2511.35546875 2726.390625 C2516.22870225 2732.76681836 2521.1042552 2739.14106814 2526 2745.5 C2531.45908318 2752.59063469 2536.893078 2759.70036158 2542.32666016 2766.81054688 C2545.05033263 2770.37428991 2547.7752013 2773.93711803 2550.5 2777.5 C2553.78577558 2781.79640199 2557.07125741 2786.09302712 2560.35546875 2790.390625 C2565.22870225 2796.76681836 2570.1042552 2803.14106814 2575 2809.5 C2580.45908318 2816.59063469 2585.893078 2823.70036158 2591.32666016 2830.81054688 C2594.05033263 2834.37428991 2596.7752013 2837.93711803 2599.5 2841.5 C2602.78577558 2845.79640199 2606.07125741 2850.09302712 2609.35546875 2854.390625 C2614.22870225 2860.76681836 2619.1042552 2867.14106814 2624 2873.5 C2629.45908318 2880.59063469 2634.893078 2887.70036158 2640.32666016 2894.81054688 C2643.05033263 2898.37428991 2645.7752013 2901.93711803 2648.5 2905.5 C2651.78577558 2909.79640199 2655.07125741 2914.09302712 2658.35546875 2918.390625 C2663.22870225 2924.76681836 2668.1042552 2931.14106814 2673 2937.5 C2678.45908318 2944.59063469 2683.893078 2951.70036158 2689.32666016 2958.81054688 C2692.05033263 2962.37428991 2694.7752013 2965.93711803 2697.5 2969.5 C2700.78577558 2973.79640199 2704.07125741 2978.09302712 2707.35546875 2982.390625 C2712.22870225 2988.76681836 2717.1042552 2995.14106814 2722 3001.5 C2727.45908318 3008.59063469 2732.893078 3015.70036158 2738.32666016 3022.81054688 C2741.05033263 3026.37428991 2743.7752013 3029.93711803 2746.5 3033.5 C2749.78577558 3037.79640199 2753.07125741 3042.09302712 2756.35546875 3046.390625 C2761.22870225 3052.76681836 2766.1042552 3059.14106814 2771 3065.5 C2776.45908318 3072.59063469 2781.893078 3079.70036158 2787.32666016 3086.81054688 C2788.97133963 3088.96249983 2790.616433 3091.11413555 2792.26171875 3093.265625 C2792.76469504 3093.92645645 2793.26767133 3094.5872879 2793.78588933 3095.26814455 C2794.86628502 3096.67487228 2795.95761594 3098.07333196 2797.06411153 3099.45962387 C2799.86724563 3103.00691217 2802.32015942 3106.44907081 2804.37777996 3110.48097897 C2807.68394933 3116.49514414 2811.21283325 3121.78551885 2817.99853921 3123.96158147 C2826.59549136 3125.42526086 2835.29899804 3125.17570467 2843.98532474 3124.97311556 C2847.9639779 3124.89920091 2851.94220892 3124.92457883 2855.9213562 3124.93745422 C2862.80310868 3124.94633814 2869.68210629 3124.89333595 2876.56316566 3124.79741096 C2886.51132577 3124.65882007 2896.45816362 3124.61493458 2906.40718438 3124.59361511 C2922.5507746 3124.55647392 2938.69289858 3124.44352367 2954.83569336 3124.2824707 C2970.51009827 3124.12625407 2986.18410391 3124.00600766 3001.85913086 3123.93383789 C3003.3101681 3123.92713844 3003.3101681 3123.92713844 3004.79051922 3123.92030365 C3009.64382162 3123.89811685 3014.49712684 3123.87663409 3019.35043395 3123.85550129 C3059.5679822 3123.67947191 3099.78389404 3123.38023201 3140 3123 C3137.56717441 3119.33050789 3135.10534834 3115.73594336 3132.42578125 3112.2421875 C3131.43191406 3110.9428125 3131.43191406 3110.9428125 3130.41796875 3109.6171875 C3129.72316406 3108.71226562 3129.02835938 3107.80734375 3128.3125 3106.875 C3126.86034044 3104.97682 3125.4085146 3103.07838464 3123.95703125 3101.1796875 C3123.26561035 3100.27573242 3122.57418945 3099.37177734 3121.86181641 3098.44042969 C3119.72456917 3095.63897107 3117.60761926 3092.82380056 3115.5 3090 C3111.43217646 3084.55549431 3107.31049628 3079.15281111 3103.1875 3073.75 C3098.43281998 3067.51882045 3093.69245231 3061.27818874 3089 3055 C3084.36985035 3048.80525588 3079.69238071 3042.64772435 3075 3036.5 C3069.82718128 3029.72282961 3064.68231827 3022.92661812 3059.578125 3016.09765625 C3055.41824681 3010.53996952 3051.21195107 3005.01828928 3047 2999.5 C3041.82718128 2992.72282961 3036.68231827 2985.92661812 3031.578125 2979.09765625 C3027.41824681 2973.53996952 3023.21195107 2968.01828928 3019 2962.5 C3013.82718128 2955.72282961 3008.68231827 2948.92661812 3003.578125 2942.09765625 C2999.41824681 2936.53996952 2995.21195107 2931.01828928 2991 2925.5 C2985.82940385 2918.72574151 2980.6866651 2911.93251242 2975.5847168 2905.10644531 C2970.66832863 2898.5379982 2965.6882566 2892.0184171 2960.7109375 2885.49609375 C2956.59905502 2880.10566048 2952.51489994 2874.6968068 2948.45703125 2869.265625 C2945.06208931 2864.73903575 2941.62006808 2860.24806783 2938.1875 2855.75 C2933.43281998 2849.51882045 2928.69245231 2843.27818874 2924 2837 C2919.36985035 2830.80525588 2914.69238071 2824.64772435 2910 2818.5 C2904.82718128 2811.72282961 2899.68231827 2804.92661812 2894.578125 2798.09765625 C2890.41824681 2792.53996952 2886.21195107 2787.01828928 2882 2781.5 C2876.82718128 2774.72282961 2871.68231827 2767.92661812 2866.578125 2761.09765625 C2862.41824681 2755.53996952 2858.21195107 2750.01828928 2854 2744.5 C2848.82718128 2737.72282961 2843.68231827 2730.92661812 2838.578125 2724.09765625 C2834.41824681 2718.53996952 2830.21195107 2713.01828928 2826 2707.5 C2820.82940385 2700.72574151 2815.6866651 2693.93251242 2810.5847168 2687.10644531 C2805.66832863 2680.5379982 2800.6882566 2674.0184171 2795.7109375 2667.49609375 C2791.59905502 2662.10566048 2787.51489994 2656.6968068 2783.45703125 2651.265625 C2780.06208931 2646.73903575 2776.62006808 2642.24806783 2773.1875 2637.75 C2768.43281998 2631.51882045 2763.69245231 2625.27818874 2759 2619 C2754.36985035 2612.80525588 2749.69238071 2606.64772435 2745 2600.5 C2739.82718128 2593.72282961 2734.68231827 2586.92661812 2729.578125 2580.09765625 C2725.41824681 2574.53996952 2721.21195107 2569.01828928 2717 2563.5 C2711.82718128 2556.72282961 2706.68231827 2549.92661812 2701.578125 2543.09765625 C2697.41824681 2537.53996952 2693.21195107 2532.01828928 2689 2526.5 C2683.82718128 2519.72282961 2678.68231827 2512.92661812 2673.578125 2506.09765625 C2669.41824681 2500.53996952 2665.21195107 2495.01828928 2661 2489.5 C2655.82940385 2482.72574151 2650.6866651 2475.93251242 2645.5847168 2469.10644531 C2640.66832863 2462.5379982 2635.6882566 2456.0184171 2630.7109375 2449.49609375 C2626.59905502 2444.10566048 2622.51489994 2438.6968068 2618.45703125 2433.265625 C2615.06208931 2428.73903575 2611.62006808 2424.24806783 2608.1875 2419.75 C2603.43281998 2413.51882045 2598.69245231 2407.27818874 2594 2401 C2589.36985035 2394.80525588 2584.69238071 2388.64772435 2580 2382.5 C2574.82718128 2375.72282961 2569.68231827 2368.92661812 2564.578125 2362.09765625 C2560.41824681 2356.53996952 2556.21195107 2351.01828928 2552 2345.5 C2546.82718128 2338.72282961 2541.68231827 2331.92661812 2536.578125 2325.09765625 C2532.41824681 2319.53996952 2528.21195107 2314.01828928 2524 2308.5 C2518.82718128 2301.72282961 2513.68231827 2294.92661812 2508.578125 2288.09765625 C2504.41824681 2282.53996952 2500.21195107 2277.01828928 2496 2271.5 C2490.82940385 2264.72574151 2485.6866651 2257.93251242 2480.5847168 2251.10644531 C2475.66832863 2244.5379982 2470.6882566 2238.0184171 2465.7109375 2231.49609375 C2461.59905502 2226.10566048 2457.51489994 2220.6968068 2453.45703125 2215.265625 C2450.06208931 2210.73903575 2446.62006808 2206.24806783 2443.1875 2201.75 C2438.43281998 2195.51882045 2433.69245231 2189.27818874 2429 2183 C2424.36985035 2176.80525588 2419.69238071 2170.64772435 2415 2164.5 C2409.82718128 2157.72282961 2404.68231827 2150.92661812 2399.578125 2144.09765625 C2395.41824681 2138.53996952 2391.21195107 2133.01828928 2387 2127.5 C2381.82718128 2120.72282961 2376.68231827 2113.92661812 2371.578125 2107.09765625 C2367.41824681 2101.53996952 2363.21195107 2096.01828928 2359 2090.5 C2353.82718128 2083.72282961 2348.68231827 2076.92661812 2343.578125 2070.09765625 C2339.41824681 2064.53996952 2335.21195107 2059.01828928 2331 2053.5 C2325.82940385 2046.72574151 2320.6866651 2039.93251242 2315.5847168 2033.10644531 C2310.66832863 2026.5379982 2305.6882566 2020.0184171 2300.7109375 2013.49609375 C2296.59905502 2008.10566048 2292.51489994 2002.6968068 2288.45703125 1997.265625 C2285.06208931 1992.73903575 2281.62006808 1988.24806783 2278.1875 1983.75 C2273.43281998 1977.51882045 2268.69245231 1971.27818874 2264 1965 C2259.36985035 1958.80525588 2254.69238071 1952.64772435 2250 1946.5 C2244.82718128 1939.72282961 2239.68231827 1932.92661812 2234.578125 1926.09765625 C2230.41824681 1920.53996952 2226.21195107 1915.01828928 2222 1909.5 C2216.82718128 1902.72282961 2211.68231827 1895.92661812 2206.578125 1889.09765625 C2202.41824681 1883.53996952 2198.21195107 1878.01828928 2194 1872.5 C2188.82718128 1865.72282961 2183.68231827 1858.92661812 2178.578125 1852.09765625 C2174.41824681 1846.53996952 2170.21195107 1841.01828928 2166 1835.5 C2160.82940385 1828.72574151 2155.6866651 1821.93251242 2150.5847168 1815.10644531 C2145.66832863 1808.5379982 2140.6882566 1802.0184171 2135.7109375 1795.49609375 C2131.59905502 1790.10566048 2127.51489994 1784.6968068 2123.45703125 1779.265625 C2120.06208931 1774.73903575 2116.62006808 1770.24806783 2113.1875 1765.75 C2108.43281998 1759.51882045 2103.69245231 1753.27818874 2099 1747 C2094.36985035 1740.80525588 2089.69238071 1734.64772435 2085 1728.5 C2079.82718128 1721.72282961 2074.68231827 1714.92661812 2069.578125 1708.09765625 C2065.41824681 1702.53996952 2061.21195107 1697.01828928 2057 1691.5 C2051.82718128 1684.72282961 2046.68231827 1677.92661812 2041.578125 1671.09765625 C2037.41824681 1665.53996952 2033.21195107 1660.01828928 2029 1654.5 C2023.82718128 1647.72282961 2018.68231827 1640.92661812 2013.578125 1634.09765625 C2009.41824681 1628.53996952 2005.21195107 1623.01828928 2001 1617.5 C1995.82940385 1610.72574151 1990.6866651 1603.93251242 1985.5847168 1597.10644531 C1980.66832863 1590.5379982 1975.6882566 1584.0184171 1970.7109375 1577.49609375 C1966.59905502 1572.10566048 1962.51489994 1566.6968068 1958.45703125 1561.265625 C1955.06208931 1556.73903575 1951.62006808 1552.24806783 1948.1875 1547.75 C1943.43281998 1541.51882045 1938.69245231 1535.27818874 1934 1529 C1929.36985035 1522.80525588 1924.69238071 1516.64772435 1920 1510.5 C1914.82718128 1503.72282961 1909.68231827 1496.92661812 1904.578125 1490.09765625 C1900.41824681 1484.53996952 1896.21195107 1479.01828928 1892 1473.5 C1886.82718128 1466.72282961 1881.68231827 1459.92661812 1876.578125 1453.09765625 C1872.41824681 1447.53996952 1868.21195107 1442.01828928 1864 1436.5 C1858.82718128 1429.72282961 1853.68231827 1422.92661812 1848.578125 1416.09765625 C1844.41824681 1410.53996952 1840.21195107 1405.01828928 1836 1399.5 C1830.82940385 1392.72574151 1825.6866651 1385.93251242 1820.5847168 1379.10644531 C1815.66832863 1372.5379982 1810.6882566 1366.0184171 1805.7109375 1359.49609375 C1801.59905502 1354.10566048 1797.51489994 1348.6968068 1793.45703125 1343.265625 C1790.06208931 1338.73903575 1786.62006808 1334.24806783 1783.1875 1329.75 C1778.43281998 1323.51882045 1773.69245231 1317.27818874 1769 1311 C1764.36985035 1304.80525588 1759.69238071 1298.64772435 1755 1292.5 C1749.82718128 1285.72282961 1744.68231827 1278.92661812 1739.578125 1272.09765625 C1735.41824681 1266.53996952 1731.21195107 1261.01828928 1727 1255.5 C1721.82718128 1248.72282961 1716.68231827 1241.92661812 1711.578125 1235.09765625 C1707.41824681 1229.53996952 1703.21195107 1224.01828928 1699 1218.5 C1693.82718128 1211.72282961 1688.68231827 1204.92661812 1683.578125 1198.09765625 C1679.41824681 1192.53996952 1675.21195107 1187.01828928 1671 1181.5 C1665.82940385 1174.72574151 1660.6866651 1167.93251242 1655.5847168 1161.10644531 C1650.66832863 1154.5379982 1645.6882566 1148.0184171 1640.7109375 1141.49609375 C1636.59905502 1136.10566048 1632.51489994 1130.6968068 1628.45703125 1125.265625 C1625.06208931 1120.73903575 1621.62006808 1116.24806783 1618.1875 1111.75 C1613.43281998 1105.51882045 1608.69245231 1099.27818874 1604 1093 C1599.36985035 1086.80525588 1594.69238071 1080.64772435 1590 1074.5 C1584.82718128 1067.72282961 1579.68231827 1060.92661812 1574.578125 1054.09765625 C1570.41824681 1048.53996952 1566.21195107 1043.01828928 1562 1037.5 C1556.82718128 1030.72282961 1551.68231827 1023.92661812 1546.578125 1017.09765625 C1542.41824681 1011.53996952 1538.21195107 1006.01828928 1534 1000.5 C1528.82718128 993.72282961 1523.68231827 986.92661812 1518.578125 980.09765625 C1514.41824681 974.53996952 1510.21195107 969.01828928 1506 963.5 C1500.82940385 956.72574151 1495.6866651 949.93251242 1490.5847168 943.10644531 C1485.66832863 936.5379982 1480.6882566 930.0184171 1475.7109375 923.49609375 C1471.59905502 918.10566048 1467.51489994 912.6968068 1463.45703125 907.265625 C1460.06208931 902.73903575 1456.62006808 898.24806783 1453.1875 893.75 C1448.43281998 887.51882045 1443.69245231 881.27818874 1439 875 C1434.36985035 868.80525588 1429.69238071 862.64772435 1425 856.5 C1419.82718128 849.72282961 1414.68231827 842.92661812 1409.578125 836.09765625 C1405.41824681 830.53996952 1401.21195107 825.01828928 1397 819.5 C1391.82718128 812.72282961 1386.68231827 805.92661812 1381.578125 799.09765625 C1377.41824681 793.53996952 1373.21195107 788.01828928 1369 782.5 C1363.82718128 775.72282961 1358.68231827 768.92661812 1353.578125 762.09765625 C1349.41824681 756.53996952 1345.21195107 751.01828928 1341 745.5 C1335.82940385 738.72574151 1330.6866651 731.93251242 1325.5847168 725.10644531 C1320.66832863 718.5379982 1315.6882566 712.0184171 1310.7109375 705.49609375 C1306.59905502 700.10566048 1302.51489994 694.6968068 1298.45703125 689.265625 C1295.06208931 684.73903575 1291.62006808 680.24806783 1288.1875 675.75 C1283.43281998 669.51882045 1278.69245231 663.27818874 1274 657 C1269.36985035 650.80525588 1264.69238071 644.64772435 1260 638.5 C1254.82718128 631.72282961 1249.68231827 624.92661812 1244.578125 618.09765625 C1240.41824681 612.53996952 1236.21195107 607.01828928 1232 601.5 C1226.82718128 594.72282961 1221.68231827 587.92661812 1216.578125 581.09765625 C1212.41824681 575.53996952 1208.21195107 570.01828928 1204 564.5 C1198.82718128 557.72282961 1193.68231827 550.92661812 1188.578125 544.09765625 C1184.41824681 538.53996952 1180.21195107 533.01828928 1176 527.5 C1170.82940385 520.72574151 1165.6866651 513.93251242 1160.5847168 507.10644531 C1155.66832863 500.5379982 1150.6882566 494.0184171 1145.7109375 487.49609375 C1141.59905502 482.10566048 1137.51489994 476.6968068 1133.45703125 471.265625 C1130.06208931 466.73903575 1126.62006808 462.24806783 1123.1875 457.75 C1118.43281998 451.51882045 1113.69245231 445.27818874 1109 439 C1104.36985035 432.80525588 1099.69238071 426.64772435 1095 420.5 C1089.82718128 413.72282961 1084.68231827 406.92661812 1079.578125 400.09765625 C1075.41824681 394.53996952 1071.21195107 389.01828928 1067 383.5 C1061.8344756 376.73238627 1056.69564492 369.94664716 1051.60009766 363.1262207 C1046.5322654 356.35331534 1041.39494443 349.63344949 1036.25390625 342.91601562 C1035.27357422 341.63307617 1035.27357422 341.63307617 1034.2734375 340.32421875 C1033.68997559 339.56197998 1033.10651367 338.79974121 1032.50537109 338.0144043 C1031.28456039 336.38078296 1030.13124811 334.69687217 1029 333 C1026.40364639 332.5476523 1026.40364639 332.5476523 1023.303442 332.63085651 C1022.08375485 332.62488337 1020.8640677 332.61891022 1019.60742033 332.61275607 C1018.24164563 332.62131629 1016.87587264 332.63015311 1015.51010132 332.63923645 C1014.06881815 332.63792934 1012.62753566 332.63530465 1011.186257 332.63146895 C1007.21153599 332.62473347 1003.23705566 332.63679842 999.26236534 332.65180314 C994.9815151 332.66471535 990.70067929 332.66037746 986.41981506 332.65809631 C978.9982314 332.65652052 971.57672663 332.66596162 964.15516281 332.68280983 C953.42473789 332.7071539 942.69435126 332.71500039 931.96390171 332.7187738 C914.55599095 332.72534551 897.14812227 332.74532617 879.74023438 332.77368164 C862.82649954 332.80120361 845.91277613 332.8224463 828.99902344 332.83520508 C827.95708743 332.83599325 826.91515142 332.83678142 825.84164159 332.83759347 C820.61474206 332.84150848 815.38784246 332.84529963 810.16094279 332.84902918 C766.7739327 332.88014749 723.38696852 332.93300284 680 333 Z " fill="#000000" transform="translate(0,0)"/>
</svg>
